<svg id="Group_288" data-name="Group 288" xmlns="http://www.w3.org/2000/svg" xmlns:xlink="http://www.w3.org/1999/xlink" width="70.959" height="71" viewBox="0 0 70.959 71">
  <defs>
    <clipPath id="clip-path">
      <rect id="Rectangle_110" data-name="Rectangle 110" width="70.959" height="71" fill="#73a133"/>
    </clipPath>
  </defs>
  <g id="Group_287" data-name="Group 287" clip-path="url(#clip-path)">
    <path id="Path_203" data-name="Path 203" d="M68,64.108c.008-.624.014-1.247.007-1.87a7.477,7.477,0,0,0-5.68-7.527l-1.409-.424q-3.705-1.111-7.414-2.211a.635.635,0,0,1-.2-.084.359.359,0,0,1-.011-.158c.038-.722.039-1.476,0-2.3-.012-.261.023-.352.3-.5a10.086,10.086,0,0,0,5.22-7.4c.242-1.414.461-2.831.68-4.249.174-1.124.348-2.248.532-3.369a.522.522,0,0,1,.174-.271,3.951,3.951,0,0,0,1.952-2.975A3.515,3.515,0,0,0,60.9,27.8a9.363,9.363,0,0,1-2.911-4.906,9.509,9.509,0,0,0-.292-.919l-.125-.353a7.518,7.518,0,0,0-5.938-5.285.807.807,0,0,1-.392-.264,3.024,3.024,0,0,0-2.417-1.286c-2.029-.02-4.058-.014-6.087,0a2.716,2.716,0,0,0-2.289,1.18,1.034,1.034,0,0,1-.783.451A6.871,6.871,0,0,0,35,19.583a13.542,13.542,0,0,0-1.445,3.441,9.494,9.494,0,0,1-2.848,4.736,3.6,3.6,0,0,0-1.268,3.016A3.972,3.972,0,0,0,31.4,33.741a.448.448,0,0,1,.158.211q.577,3.565,1.1,7.142a10.55,10.55,0,0,0,3.856,6.957,6.971,6.971,0,0,0,.772.51,2.529,2.529,0,0,1,.956.778,2.859,2.859,0,0,1,.076,1.32,7.279,7.279,0,0,0-.032.985c.018.33,0,.378-.352.48-1.446.414-2.886.848-4.326,1.283s-2.908.878-4.368,1.3a7.45,7.45,0,0,0-5.645,7c-.017.76-.016,1.521-.015,2.28,0,1.02,0,2.075-.041,3.1a3.535,3.535,0,0,0,2.326,3.885L53.516,71l.253-.054.143-.13A.686.686,0,0,1,54,70.743a1.551,1.551,0,0,0,.637-1.89,1.569,1.569,0,0,0-1.6-1.051H36.358V65.563a2.374,2.374,0,0,0-.551-1.768,1.509,1.509,0,0,0-1.1-.4c-1.033.025-1.558.75-1.56,2.156V67.8l-.08,0H31.178c-1.353,0-2.708-.006-4.061.012a.708.708,0,0,1-.31-.03.581.581,0,0,1-.033-.275c.015-.918.012-1.836.009-2.754,0-.881-.007-1.762.008-2.643a4.19,4.19,0,0,1,3.161-4.248c3.131-.966,6.273-1.9,9.415-2.832l.5-.148a2.9,2.9,0,0,1,.8-.085q5.12-.013,10.239,0a3.589,3.589,0,0,1,1,.148q4.707,1.387,9.4,2.805a4.357,4.357,0,0,1,3.484,4.693l0,1.567c0,1.142-.009,2.286.015,3.427a.805.805,0,0,1-.034.336h0s-.056.05-.311.038c-1.454-.023-2.91-.02-4.366-.017l-1.665-.01v-.028c0-.39,0-.784,0-1.178v-.431c0-.436,0-.874-.03-1.309a1.471,1.471,0,0,0-1.421-1.424A1.5,1.5,0,0,0,55.3,64.628a2.982,2.982,0,0,0-.078.726c0,.452,0,.905,0,1.358,0,.751.005,1.5-.01,2.254a2.019,2.019,0,0,0,1.071,1.974L56.4,71h9.239l.089-.035a3.542,3.542,0,0,0,2.3-3.9c-.05-.979-.039-1.986-.028-2.96M49.243,47.092c-.266.027-.533.055-.8.089a1.6,1.6,0,0,0-1.507,1.707,1.57,1.57,0,0,0,1.642,1.469H48.6c.447-.006.9-.043,1.358-.083l.069-.006v1.259H41.56V50.37h2.365a2.141,2.141,0,0,0,1.577-.538,1.477,1.477,0,0,0,.408-1.084c-.007-.372-.167-1.572-1.964-1.572h-.062a8.12,8.12,0,0,1-5-1.35,7.242,7.242,0,0,1-2.98-4.884c-.275-1.654-.525-3.313-.778-5l-.259-1.7H56.7l-.1.712c-.146.991-.29,1.975-.448,2.957l-.12.762c-.16,1.024-.326,2.083-.558,3.1a7.011,7.011,0,0,1-6.064,5.3ZM39.775,23.743a1.617,1.617,0,0,0,1.667,1.58,1.574,1.574,0,0,0,1.511-1.632c.013-.877.012-1.754.01-2.631,0-.582,0-1.163,0-1.744l0-.625a6.728,6.728,0,0,1,.014-.714c.129-.013.377-.009.62-.007.2,0,.446.007.726,0,.922-.009,1.842-.006,2.763,0l1.055,0c.118,0,.336,0,.462.013.012.12.013.324.013.436v1.728c0,1.156,0,2.31.008,3.465a1.785,1.785,0,0,0,.506,1.285,1.589,1.589,0,0,0,1.1.425,1.652,1.652,0,0,0,1.58-1.643c.01-.128.009-.258.007-.388V19.714a3.91,3.91,0,0,1,2.491,2.377c.269.692.5,1.4.732,2.108.236.726.482,1.475.767,2.2A7.943,7.943,0,0,0,57,28.347a10.491,10.491,0,0,0,1.074,1.121c.136.127.271.254.4.384.435.428.474.578.371.815s-.253.284-.81.284l-19.974,0q-2.27,0-4.537,0c-.625-.01-.713-.066-.8-.282-.079-.187-.125-.416.334-.778a9.665,9.665,0,0,0,3.453-5.618,13.449,13.449,0,0,1,.795-2.294,3.979,3.979,0,0,1,2.454-2.265v2.765l0,.343c-.005.308-.008.615.014.921" fill="#73a133"/>
    <path id="Path_204" data-name="Path 204" d="M70.943,3.819C70.292,1.284,68.432,0,65.416,0h-.035Q47.026.059,28.67.03l-13.145,0h-.163a3.437,3.437,0,0,0-.831.058,1.516,1.516,0,0,0-1.255,1.576,1.527,1.527,0,0,0,1.4,1.539,4.955,4.955,0,0,0,.7.027l.183,0H65.893c1.412,0,1.866.448,1.866,1.846V39.8H66c-1.293,0-2.585,0-3.876.008a1.62,1.62,0,0,0-1.721,1.6,1.6,1.6,0,0,0,1.716,1.588c.515.01,1.03.009,1.543.006l4.1,0v.854q0,4.609,0,9.222a1.5,1.5,0,0,1-.635,1.252c-1.3,1.029-.784,2.011-.5,2.386a1.464,1.464,0,0,0,1.2.615,2.228,2.228,0,0,0,1.312-.495,5.448,5.448,0,0,0,1.808-2.853l.024-.075V3.943Z" fill="#73a133"/>
    <path id="Path_205" data-name="Path 205" d="M62.1,10.745c0-1.264-.574-1.839-1.849-1.865-.149,0-.3,0-.443,0H23.824c0-.189,0-.363,0-.538a2.34,2.34,0,0,0-2.43-2.422q-5.057-.024-10.114,0A2.3,2.3,0,0,0,8.856,8.344q-.029,2.125,0,4.249a2.271,2.271,0,0,0,2.414,2.414c.687.015,1.376.012,2.063.01h1.156c.081,0,.162,0,.245.008v.188c-.005.5-.01.967.014,1.434.008.158.01.195-.2.3-.681.329-1.356.669-2.032,1.009s-1.37.69-2.061,1.023a2.612,2.612,0,0,0-1.614,2.546,2.613,2.613,0,0,0,1.62,2.542c1.369.659,2.723,1.345,4.072,2.041.093.047.185.131.186.082.036.544.031,1.091.025,1.666v.175l-.776,0c-.936,0-1.846-.005-2.756.007A2.259,2.259,0,0,0,8.864,30.3c-.029,1.485-.029,3.009,0,4.527A2.237,2.237,0,0,0,11.138,37.1q2.628.015,5.255.015,2.565,0,5.132-.015a2.3,2.3,0,0,0,2.294-2.331c.007-.193.007-.387,0-.594h1.105c.587,0,1.175,0,1.76-.031a1.538,1.538,0,0,0,1.527-1.511,1.568,1.568,0,0,0-1.458-1.654A4.7,4.7,0,0,0,26,30.949H23.823c0-.224,0-.428-.006-.632a2.312,2.312,0,0,0-2.244-2.281c-.236-.013-.472-.009-.71-.01H17.944l0-.166c.005-.5.01-.968-.015-1.434-.011-.208,0-.249.218-.351.723-.344,1.438-.7,2.153-1.063.626-.316,1.252-.631,1.884-.936a2.809,2.809,0,0,0-.008-5.121c-1.345-.647-2.675-1.326-4.074-2.041a1,1,0,0,1-.144-.087c-.022-.549-.019-1.1-.015-1.668v-.146h.72c.9.005,1.769.006,2.637-.006a2.336,2.336,0,0,0,2.52-2.53v-.337H58.9V15q0,3.505.006,7.01a1.935,1.935,0,0,0,.532,1.41,1.548,1.548,0,0,0,1.122.422A1.617,1.617,0,0,0,62.1,22.024c.008-.768.007-1.538.005-2.307l0-.977V16.486q0-2.87,0-5.741M12.112,31.253H20.58v2.625H12.112Zm1.421-9.247c-.319-.156-.635-.317-.969-.487l.2-.1c1.231-.617,2.41-1.209,3.595-1.767,1.216.6,2.427,1.2,3.7,1.843l.044.023c-.344.174-.672.34-1,.5-.31.151-.622.335-.933.52a4.118,4.118,0,0,1-1.849.766h0a4.118,4.118,0,0,1-1.848-.774c-.312-.187-.624-.374-.935-.527m7.043-10.263h-8.5V9.176h8.5Z" fill="#73a133"/>
    <path id="Path_206" data-name="Path 206" d="M25.292,56.126c-.006-.724-.384-1.585-2.15-1.585H5.038c-1.392,0-1.837-.438-1.839-1.8q0-4.749,0-9.5c0-.079,0-.157.007-.24H29.054a2.335,2.335,0,0,0,1.73-.538,1.441,1.441,0,0,0,.4-1.075c-.008-.593-.3-1.587-2.154-1.587H3.2l0-34.9c0-1.167.508-1.667,1.7-1.669q2.663-.009,5.324,0a1.589,1.589,0,0,0,1.642-.908A1.509,1.509,0,0,0,11.819.836,1.822,1.822,0,0,0,10.25.031C8.907.019,7.563.022,6.222.025l-1.238,0C1.863.03,0,1.9,0,5.037V52.732c0,3.137,1.863,5.01,4.986,5.011H23.157a2.337,2.337,0,0,0,1.728-.545,1.466,1.466,0,0,0,.407-1.072" fill="#73a133"/>
    <path id="Path_207" data-name="Path 207" d="M15.845,44.265c-1.149.016-2.3.018-3.447,0-1.3-.018-2.645-.038-3.969.042a4.414,4.414,0,0,0-4.008,4.424,4.528,4.528,0,0,0,3.985,4.522,13.719,13.719,0,0,0,1.57.078H10.1c.873-.005,1.747,0,2.621,0,2.316,0,4.724,0,7.087-.1a4.488,4.488,0,0,0,.005-8.925c-1.325-.08-2.669-.062-3.967-.042m-.211,5.841-1.037,0v-.016l-2.046,0c-1.233,0-2.465.01-3.7-.013a1.245,1.245,0,0,1-1.167-.936,1.268,1.268,0,0,1,.5-1.427,1.7,1.7,0,0,1,.822-.26c3.731-.029,7.077-.031,10.225-.008a1.326,1.326,0,1,1-.026,2.648c-1.191.019-2.381.016-3.572.011" fill="#73a133"/>
    <path id="Path_208" data-name="Path 208" d="M57.444,48.793a4.612,4.612,0,0,0,4.531,4.528h.037a4.612,4.612,0,0,0,4.525-4.57A4.532,4.532,0,0,0,58.751,45.6a4.474,4.474,0,0,0-1.307,3.19m3.227-.018a1.292,1.292,0,0,1,1.3-1.326h.014a1.312,1.312,0,0,1,1.327,1.293A1.309,1.309,0,0,1,61.99,50.1h-.008a1.294,1.294,0,0,1-1.311-1.321" fill="#73a133"/>
    <path id="Path_209" data-name="Path 209" d="M26.192,45.767A4.321,4.321,0,0,0,25.041,48.9,4.566,4.566,0,0,0,29.5,53.322q.1,0,.207-.006a4.531,4.531,0,0,0,4.41-4.66,4.67,4.67,0,0,0-1.493-3.249,4.3,4.3,0,0,0-3.161-1.174,4.746,4.746,0,0,0-3.273,1.534m2.062,3a1.308,1.308,0,0,1,.4-.942,1.334,1.334,0,0,1,.937-.375h.04a1.321,1.321,0,0,1-.045,2.642h-.017a1.313,1.313,0,0,1-1.315-1.326" fill="#73a133"/>
  </g>
</svg>
