<svg xmlns="http://www.w3.org/2000/svg" xmlns:xlink="http://www.w3.org/1999/xlink" width="70.6" height="55.744" viewBox="0 0 70.6 55.744">
  <defs>
    <clipPath id="clip-path">
      <rect id="Rectangle_97" data-name="Rectangle 97" width="70.6" height="55.744" transform="translate(0 0)" fill="#73a133"/>
    </clipPath>
  </defs>
  <g id="Group_202" data-name="Group 202" transform="translate(0 0)">
    <g id="Group_201" data-name="Group 201" clip-path="url(#clip-path)">
      <path id="Path_115" data-name="Path 115" d="M70.585,4.344a4.37,4.37,0,0,0-3.3-4.171A7.445,7.445,0,0,0,65.517.006Q35.313,0,5.1,0a8.993,8.993,0,0,0-1.2.06A4.318,4.318,0,0,0,.245,3.01c-.046.121-.1.24-.146.359L0,3.613V54.389l.022.113a2.075,2.075,0,0,0,2.206,1.242h.008q14.283-.01,28.564-.008H44.13a4.305,4.305,0,0,0,.876-.067,1.65,1.65,0,0,0,1.334-1.68,1.611,1.611,0,0,0-1.355-1.57,4.583,4.583,0,0,0-.872-.058q-3.636-.006-7.271,0H34.553V14.425H67.2V52.358l-3.14,0-6.444,0c-1.389,0-2.2.6-2.225,1.653a1.5,1.5,0,0,0,.414,1.134,2.448,2.448,0,0,0,1.816.59H68.348c1.678,0,2.245-.569,2.245-2.25V8.86l0-1.326c0-1.063.007-2.127-.012-3.19M31.09,52.313H3.382V14.436H31.09ZM67.243,9.326l0,1.653H3.349l0-1.665c0-1.632-.006-3.242.011-4.851A1.048,1.048,0,0,1,4.47,3.384c.131-.007.262-.006.394-.005H65.733c.134,0,.267,0,.4.006a1.015,1.015,0,0,1,1.095,1.022c.024,1.633.019,3.266.015,4.919" fill="#73a133"/>
      <path id="Path_116" data-name="Path 116" d="M65.092,18.652c0-1.5-.613-2.111-2.113-2.111q-12.129,0-24.262,0c-1.452,0-2.071.622-2.071,2.078q0,6.458,0,12.917c0,1.554.581,2.132,2.14,2.133l15.505,0,8.689,0c1.52,0,2.112-.59,2.113-2.1q0-6.459,0-12.917M61.7,30.26H40.031V19.954H61.7Z" fill="#73a133"/>
      <path id="Path_117" data-name="Path 117" d="M62.871,36.943H38.85a6.234,6.234,0,0,0-.71.028,1.654,1.654,0,0,0-.126,3.275,3.626,3.626,0,0,0,.738.052l13.344,0,10.914,0a3.536,3.536,0,0,0,.667-.043,1.675,1.675,0,0,0,1.4-1.7,1.656,1.656,0,0,0-1.522-1.587c-.227-.025-.458-.021-.686-.024" fill="#73a133"/>
      <path id="Path_118" data-name="Path 118" d="M56.522,45.21a1.619,1.619,0,0,0-1.71-1.646q-7.137-.013-14.271,0h-2.2a1.6,1.6,0,0,0-1.525.959,1.585,1.585,0,0,0,.063,1.559,1.816,1.816,0,0,0,1.558.817q1.744.009,3.487.007h2.323l2.324,0h2.207q2.994.006,5.993-.005a1.772,1.772,0,0,0,1.291-.5,1.623,1.623,0,0,0,.456-1.187" fill="#73a133"/>
      <path id="Path_119" data-name="Path 119" d="M8.857,36.172a4.459,4.459,0,0,0,1.515.268,4.382,4.382,0,0,0,3.9-2.411.55.55,0,0,1,.61-.37c1.494.018,2.985.016,4.476.013l1.6,0h3.251c1.057,0,2.117,0,3.172-.021a1.616,1.616,0,0,0,1.582-1.537,1.66,1.66,0,0,0-1.342-1.75,3.108,3.108,0,0,0-.722-.048l-1.716,0c-3.394,0-6.789,0-10.184.009a.7.7,0,0,1-.783-.435,4.182,4.182,0,0,0-3.664-2.308,4.429,4.429,0,0,0-1.7,8.593m1.506-5.251a1.112,1.112,0,0,1,1.07,1.109,1.066,1.066,0,0,1-1.076,1.03h-.005A1.038,1.038,0,0,1,9.3,32.021a1.084,1.084,0,0,1,.315-.784,1.044,1.044,0,0,1,.745-.316Z" fill="#73a133"/>
      <path id="Path_120" data-name="Path 120" d="M7.506,22.649a3.868,3.868,0,0,0,.517.017H9.162q3.526,0,7.058,0c.292,0,.39.018.49.22A4.215,4.215,0,0,0,20.689,25.4h0a4.316,4.316,0,0,0,4-2.487.661.661,0,0,1,.422-.23c.384-.027.771-.024,1.157-.02.343,0,.682.006,1.022-.01A1.683,1.683,0,0,0,28.98,20.97a1.66,1.66,0,0,0-1.708-1.654c-.715-.028-1.437-.029-2.141,0-.265.009-.36-.054-.5-.323a4.21,4.21,0,0,0-3.942-2.434h-.014a4.208,4.208,0,0,0-3.939,2.465c-.129.253-.236.282-.524.289-1.014-.011-2.029-.008-3.042-.007l-1.4.009-1.03,0c-1.048-.005-2.1-.009-3.146.012a1.638,1.638,0,0,0-1.666,1.62,1.7,1.7,0,0,0,1.58,1.706m14.245-1.667a1.078,1.078,0,0,1-1.038,1.074,1.126,1.126,0,0,1-.765-.313,1.084,1.084,0,0,1-.335-.766,1.044,1.044,0,0,1,.318-.749,1.079,1.079,0,0,1,.762-.308h.027A1.038,1.038,0,0,1,21.751,20.982Z" fill="#73a133"/>
      <path id="Path_121" data-name="Path 121" d="M27.06,41.36H25.441c-1.163,0-2.331,0-3.5-.019a.635.635,0,0,1-.408-.226,4.347,4.347,0,0,0-3.984-2.5H17.52A4.336,4.336,0,0,0,13.5,41.128a.576.576,0,0,1-.357.213c-.661.03-1.338.027-1.993.021l-.724,0c-.281.006-.531,0-.8-.005-.64-.005-1.3-.013-1.952.021a2.172,2.172,0,0,0-1.161.406A1.51,1.51,0,0,0,6.044,43.6a1.642,1.642,0,0,0,1.665,1.1h.9c1.5,0,3,.006,4.5-.007.286-.012.337.047.454.276a4.235,4.235,0,0,0,3.929,2.466h.032a4.234,4.234,0,0,0,3.963-2.476c.113-.222.215-.259.459-.265,1.711.014,3.42.012,5.127,0a1.686,1.686,0,1,0-.012-3.343M17.537,44.1a1.052,1.052,0,0,1-.759-.312,1.076,1.076,0,0,1-.322-.775,1.055,1.055,0,0,1,1.05-1.049,1,1,0,0,1,.779.31,1.053,1.053,0,0,1,.306.762A1.1,1.1,0,0,1,17.537,44.1" fill="#73a133"/>
      <path id="Path_122" data-name="Path 122" d="M19.587,5.542h-.006a1.654,1.654,0,0,0-1.666,1.624,1.7,1.7,0,0,0,1.674,1.711H19.6a1.639,1.639,0,0,0,1.179-.5,1.675,1.675,0,0,0,.475-1.219,1.627,1.627,0,0,0-1.664-1.612" fill="#73a133"/>
      <path id="Path_123" data-name="Path 123" d="M13.39,5.542h0a1.621,1.621,0,0,0-1.657,1.621,1.688,1.688,0,0,0,.485,1.224,1.633,1.633,0,0,0,1.171.491h0a1.721,1.721,0,0,0,1.676-1.635A1.625,1.625,0,0,0,14.6,6.055a1.7,1.7,0,0,0-1.211-.513" fill="#73a133"/>
      <path id="Path_124" data-name="Path 124" d="M7.227,5.541a1.7,1.7,0,0,0-1.219.484,1.64,1.64,0,0,0-.5,1.178A1.715,1.715,0,0,0,7.146,8.877h.046a1.631,1.631,0,0,0,1.146-.466A1.677,1.677,0,0,0,8.846,7.2,1.644,1.644,0,0,0,7.227,5.541" fill="#73a133"/>
    </g>
  </g>
</svg>
