<svg xmlns="http://www.w3.org/2000/svg" xmlns:xlink="http://www.w3.org/1999/xlink" width="69" height="68.987" viewBox="0 0 69 68.987">
  <defs>
    <clipPath id="clip-path">
      <rect id="Rectangle_96" data-name="Rectangle 96" width="69" height="68.987" transform="translate(0 0)" fill="#73a133"/>
    </clipPath>
  </defs>
  <g id="Group_199" data-name="Group 199" transform="translate(0 0)">
    <g id="Group_198" data-name="Group 198" clip-path="url(#clip-path)">
      <path id="Path_114" data-name="Path 114" d="M4.891,68.985q7.107,0,14.215,0c3.061,0,4.89-1.842,4.894-4.924V59.023H45V64.1a4.523,4.523,0,0,0,4.856,4.881q7.109.006,14.216,0c3.082,0,4.923-1.83,4.925-4.89Q69,56.988,69,49.882c0-3.059-1.843-4.887-4.924-4.89H59.049V24h5.067A4.525,4.525,0,0,0,69,19.138Q69,12.031,69,4.925C69,1.844,67.167,0,64.105,0Q57,0,49.89,0C46.831,0,45,1.845,45,4.926V9.949H24V4.883A4.523,4.523,0,0,0,19.144,0Q12.034,0,4.928,0C1.846,0,0,1.831,0,4.891Q0,12,0,19.1C0,22.164,1.845,23.993,4.926,24H9.951v21H4.886A4.522,4.522,0,0,0,0,49.845Q0,56.99,0,64.137a4.521,4.521,0,0,0,4.888,4.848m60.046-4.054h-15.9v-15.9h15.9ZM49.054,4.037h15.9v15.9h-15.9ZM24,18.958V14.049H45v5.016c0,3.085,1.857,4.929,4.96,4.931h5.006v21H49.932C46.846,44.994,45,46.848,45,49.95v4.988H24V50c0-3.23-1.79-5.009-5.036-5.011H14.052V24h4.937c3.23,0,5.009-1.791,5.011-5.038M4.067,4.018H19.941V19.945H4.067Zm-.005,45h15.9V64.948H4.062Z" fill="#73a133"/>
    </g>
  </g>
</svg>
