<svg xmlns="http://www.w3.org/2000/svg" xmlns:xlink="http://www.w3.org/1999/xlink" width="70" height="67.623" viewBox="0 0 70 67.623">
  <defs>
    <clipPath id="clip-path">
      <rect id="Rectangle_95" data-name="Rectangle 95" width="70" height="67.623" transform="translate(0 0)" fill="#73a133"/>
    </clipPath>
  </defs>
  <g id="Group_196" data-name="Group 196" transform="translate(0 0)">
    <g id="Group_195" data-name="Group 195" clip-path="url(#clip-path)">
      <path id="Path_103" data-name="Path 103" d="M70,3.812C70,1.211,68.777,0,66.157,0H3.887C1.235,0,0,1.227,0,3.863v59.9c0,2.634,1.236,3.861,3.891,3.861h62.27C68.742,67.622,70,66.374,70,63.8c0-16.756,0-43.235,0-59.991m-4.1-.356c.18,0,.438,0,.632.01.008.183.008.424.008.592V6.416c0,3.613,0,9.951-.006,12.345H3.466v-.829c0-3.989-.012-12.112.029-14.43.034-.025.074-.051.116-.076.044,0,.091.008.136.012.117.01.234.019.346.019ZM3.46,64.162a1.392,1.392,0,0,1-.015-.227q.02-16.521.013-33.042V22.321h14.6V64.163H13.586c-3.292,0-6.587,0-9.882.014a1.046,1.046,0,0,1-.244-.015M21.722,22.293H66.541V63.764c0,.173,0,.3-.007.395-.088,0-.2.006-.359.006H21.722Z" fill="#73a133"/>
      <path id="Path_104" data-name="Path 104" d="M60.92,46.476l.005-3.256,0-3.243c-.005-2.79-.011-5.58.021-8.37A3.893,3.893,0,0,0,58.9,27.9a20.541,20.541,0,0,0-4.448-1.86,44.515,44.515,0,0,0-18.2-.563,17.174,17.174,0,0,0-7.036,2.41,4.191,4.191,0,0,0-2,3.734c.033,7.787.033,15.574,0,23.146a3.9,3.9,0,0,0,2.089,3.774,21.1,21.1,0,0,0,4.453,1.836,41.489,41.489,0,0,0,10.132,1.228,50.584,50.584,0,0,0,8.356-.725,16.94,16.94,0,0,0,6.657-2.324,4.266,4.266,0,0,0,2.051-3.822c-.037-2.75-.03-5.552-.023-8.261M57.427,36.8a1.536,1.536,0,0,1-.673.851,26.056,26.056,0,0,1-5.071,1.641,40.724,40.724,0,0,1-17.291-.454,17.453,17.453,0,0,1-3.051-1.215l-.172-.08a.835.835,0,0,1-.509-.97c.035-.459.042-.916.038-1.349A41.826,41.826,0,0,0,57.509,35.2a7.363,7.363,0,0,1-.082,1.6M30.7,41.261a41.025,41.025,0,0,0,26.793-.017,9.6,9.6,0,0,1-.081,1.828,1.431,1.431,0,0,1-.656.643,27.991,27.991,0,0,1-5,1.61,40.7,40.7,0,0,1-17.387-.44A17.223,17.223,0,0,1,31.4,43.709l-.174-.082a.891.891,0,0,1-.564-1.027c.037-.456.044-.91.041-1.339m0,6.064A41.819,41.819,0,0,0,57.509,47.3a7.353,7.353,0,0,1-.082,1.6,1.542,1.542,0,0,1-.673.852,26.058,26.058,0,0,1-5.071,1.641,40.724,40.724,0,0,1-17.291-.454,17.532,17.532,0,0,1-3.051-1.215l-.172-.08a.836.836,0,0,1-.509-.971c.035-.459.042-.915.038-1.348M57.46,31.11a1.621,1.621,0,0,1-.556.408,13.175,13.175,0,0,1-3.753,1.413c-.285.051-.61.115-.972.185a36.893,36.893,0,0,1-18.9-.663A9.072,9.072,0,0,1,31,31.342a1.608,1.608,0,0,1-.3-.243,1.467,1.467,0,0,1,.233-.162,13.58,13.58,0,0,1,3.612-1.532,39.781,39.781,0,0,1,20.3.352,8.522,8.522,0,0,1,2,.889,4,4,0,0,1,.614.464M30.7,53.376a41.312,41.312,0,0,0,26.789-.029A9.033,9.033,0,0,1,57.4,55.22a1.6,1.6,0,0,1-.757.654l-.515.178a33.215,33.215,0,0,1-5.543,1.565,39.928,39.928,0,0,1-16.2-.627,18.828,18.828,0,0,1-3.151-1.253.891.891,0,0,1-.579-1.019c.037-.458.044-.912.04-1.342" fill="#73a133"/>
      <path id="Path_105" data-name="Path 105" d="M6.881,29.225H14.6a1.664,1.664,0,0,0,1.661-1.662v-.019A1.664,1.664,0,0,0,14.6,25.882H6.881a1.672,1.672,0,0,0,0,3.343" fill="#73a133"/>
      <path id="Path_106" data-name="Path 106" d="M14.6,31.917H6.9a1.67,1.67,0,0,0,0,3.34h7.7A1.663,1.663,0,0,0,16.261,33.6v-.017A1.664,1.664,0,0,0,14.6,31.917" fill="#73a133"/>
      <path id="Path_107" data-name="Path 107" d="M6.874,41.3H14.59a1.662,1.662,0,1,0,0-3.324H6.874a1.662,1.662,0,0,0,0,3.324" fill="#73a133"/>
      <path id="Path_108" data-name="Path 108" d="M14.626,44.023H6.909a1.663,1.663,0,0,0,0,3.325h7.717a1.663,1.663,0,0,0,0-3.325" fill="#73a133"/>
      <path id="Path_109" data-name="Path 109" d="M14.6,50.063H6.881A1.663,1.663,0,0,0,5.22,51.725v.021a1.663,1.663,0,0,0,1.661,1.662H14.6a1.673,1.673,0,0,0,0-3.345" fill="#73a133"/>
      <path id="Path_110" data-name="Path 110" d="M16.262,57.775A1.664,1.664,0,0,0,14.6,56.113H6.88a1.664,1.664,0,0,0-1.662,1.662v.02A1.663,1.663,0,0,0,6.88,59.457H14.6a1.668,1.668,0,0,0,1.662-1.682" fill="#73a133"/>
      <path id="Path_111" data-name="Path 111" d="M7.679,12.789h22.7a1.671,1.671,0,1,0,0-3.342H7.679a1.671,1.671,0,1,0,0,3.342" fill="#73a133"/>
      <path id="Path_112" data-name="Path 112" d="M59.618,15.725h.021a4.986,4.986,0,1,0-5.005-5,5.009,5.009,0,0,0,4.984,5m-.932-5.917a1.3,1.3,0,0,1,.93-.385,1.171,1.171,0,0,1,.952.4,1.3,1.3,0,0,1,.381.926,1.343,1.343,0,0,1-.415.938,1.263,1.263,0,0,1-.935.382,1.333,1.333,0,0,1-.913-2.263" fill="#73a133"/>
      <path id="Path_113" data-name="Path 113" d="M47.952,15.725h.012a4.975,4.975,0,0,0,4.97-5.008,5,5,0,0,0-4.956-4.965A4.873,4.873,0,0,0,44.463,7.2a4.988,4.988,0,0,0,3.489,8.521M47.042,9.8a1.309,1.309,0,0,1,.919-.373h.028a1.308,1.308,0,0,1,1.289,1.306,1.33,1.33,0,0,1-.393.953,1.3,1.3,0,0,1-.922.39h0a1.3,1.3,0,0,1-.924-.395,1.333,1.333,0,0,1-.394-.951,1.3,1.3,0,0,1,.4-.93" fill="#73a133"/>
    </g>
  </g>
</svg>
