<svg xmlns="http://www.w3.org/2000/svg" width="69.755" height="70.5" viewBox="0 0 69.755 70.5">
  <path id="Union_1" data-name="Union 1" d="M47.844,67.285a6.61,6.61,0,0,1-.754.044A6.5,6.5,0,0,1,40.817,62.5H39.085a5.02,5.02,0,0,1-9.311,0H28.044a6.47,6.47,0,0,1-7.028,4.784A9.789,9.789,0,0,1,6.5,67.27a6.609,6.609,0,0,1,0-13.216,9.789,9.789,0,0,1,14.52-.015A6.621,6.621,0,0,1,21.757,54a6.517,6.517,0,0,1,6.286,4.826h1.733a5,5,0,0,1,2.815-2.785V46.595A42.038,42.038,0,0,1,18.548,43.9c-4.334-1.795-6.625-4.245-6.625-7.087V9.788A5.856,5.856,0,0,1,13.961,5.5a15.559,15.559,0,0,1,5.2-3.041A44.849,44.849,0,0,1,34.43,0,44.853,44.853,0,0,1,49.7,2.461,15.568,15.568,0,0,1,54.9,5.5a5.855,5.855,0,0,1,2.037,4.287V36.815c0,2.858-2.291,5.317-6.624,7.111A41.655,41.655,0,0,1,36.27,46.6v9.41a5,5,0,0,1,2.816,2.816h1.731A6.517,6.517,0,0,1,47.1,54a6.609,6.609,0,0,1,.742.042,9.789,9.789,0,0,1,14.594.1l.014.016a6.45,6.45,0,0,1,.7-.037,6.609,6.609,0,1,1-.8,13.17,9.789,9.789,0,0,1-14.505,0Zm.753-3.932a1.841,1.841,0,0,1,1.491.791,6.108,6.108,0,0,0,10.018,0,1.841,1.841,0,0,1,2.077-.716l.014,0a2.412,2.412,0,0,0,.851.159,2.93,2.93,0,0,0,0-5.859,2.409,2.409,0,0,0-.849.158l-.014,0a1.842,1.842,0,0,1-2.079-.717,6.108,6.108,0,0,0-10.017,0,1.841,1.841,0,0,1-2.077.715l-.013,0a2.412,2.412,0,0,0-.851-.158,2.93,2.93,0,0,0-.006,5.859,2.436,2.436,0,0,0,.841-.216l.033-.015.036,0a1.984,1.984,0,0,1,.546,0Zm-41.334,0a1.841,1.841,0,0,1,1.491.791,6.108,6.108,0,0,0,10.018,0,1.842,1.842,0,0,1,2.078-.716l.013,0a2.412,2.412,0,0,0,.851.159,2.93,2.93,0,0,0,0-5.859,2.409,2.409,0,0,0-.849.158l-.013,0a1.842,1.842,0,0,1-2.079-.717,6.109,6.109,0,0,0-10.018,0,1.841,1.841,0,0,1-2.077.715l-.013,0a2.411,2.411,0,0,0-.85-.158,2.93,2.93,0,0,0-.007,5.859,2.446,2.446,0,0,0,.842-.216l.032-.015.036,0a1.984,1.984,0,0,1,.546,0ZM33.09,60.662a1.34,1.34,0,1,0,1.34-1.34A1.341,1.341,0,0,0,33.09,60.662ZM15.6,36.815c0,1.265,1.9,2.776,4.948,3.942A40.367,40.367,0,0,0,34.43,42.924a40.37,40.37,0,0,0,13.879-2.167c3.052-1.166,4.948-2.677,4.948-3.942v-2.4A25.847,25.847,0,0,1,45.211,37.5a49.659,49.659,0,0,1-10.78,1.159A49.647,49.647,0,0,1,23.65,37.5,25.838,25.838,0,0,1,15.6,34.419Zm0-7.949c0,1.265,1.9,2.776,4.948,3.942A40.367,40.367,0,0,0,34.43,34.975a40.371,40.371,0,0,0,13.879-2.167c3.052-1.166,4.948-2.677,4.948-3.942v-2.4a25.847,25.847,0,0,1-8.047,3.077,49.66,49.66,0,0,1-10.78,1.158,49.648,49.648,0,0,1-10.78-1.158A25.838,25.838,0,0,1,15.6,26.47Zm0-7.949c0,1.265,1.9,2.776,4.948,3.942A40.367,40.367,0,0,0,34.43,27.026a40.371,40.371,0,0,0,13.879-2.167c3.052-1.166,4.948-2.677,4.948-3.942V15.341a25.847,25.847,0,0,1-8.047,3.077,49.659,49.659,0,0,1-10.78,1.159,49.647,49.647,0,0,1-10.78-1.159A25.838,25.838,0,0,1,15.6,15.341Zm4.948-15.07C17.5,7.013,15.6,8.523,15.6,9.788s1.9,2.776,4.948,3.942A40.367,40.367,0,0,0,34.43,15.9,40.371,40.371,0,0,0,48.309,13.73c3.052-1.166,4.948-2.677,4.948-3.942s-1.9-2.776-4.948-3.941A40.369,40.369,0,0,0,34.43,3.679,40.366,40.366,0,0,0,20.552,5.847Z" fill="#73a133"/>
</svg>
