<svg xmlns="http://www.w3.org/2000/svg" width="71.399" height="63.737" viewBox="0 0 71.399 63.737">
  <path id="Union_2" data-name="Union 2" d="M25.766,63.483l-.031-.019a2.02,2.02,0,0,1-.491-.451l-.03-.041L19.866,54.95l-.015-.03a2.032,2.032,0,0,1,3.373-2.236l.027.033,1.366,2.194V48.62A7.351,7.351,0,0,1,26.8,43.377a7.133,7.133,0,0,1,5.041-2.068c.059,0,.118,0,.176,0H56.705A10.667,10.667,0,0,0,67.111,28.329a10.4,10.4,0,0,0-4.321-6.42,10.626,10.626,0,0,0-10.75-.758,17.945,17.945,0,0,1-6.847,11.211,2.017,2.017,0,0,1-1.22.408,2.042,2.042,0,0,1-1.627-.813,2.033,2.033,0,0,1,.407-2.846,13.933,13.933,0,0,0,5.425-9.522,11.117,11.117,0,0,0,0-1.49l0-.03v-.03A13.6,13.6,0,0,0,39.3,5.066,14.115,14.115,0,0,0,26.338,6.737a13.948,13.948,0,0,0-5.651,11.231,2.2,2.2,0,0,1-.6,1.853,2.093,2.093,0,0,1-1.883.6l-.032-.006-.032-.009A10.679,10.679,0,1,0,12.893,41.1H18.7a3.584,3.584,0,0,0,2.365-.968,3.3,3.3,0,0,0,.887-2.335V31.41l-1.579,2.382A2.032,2.032,0,1,1,17,31.552l5.328-7.99a1.979,1.979,0,0,1,3.216,0l.014.02,5.314,7.97a2.033,2.033,0,1,1-3.382,2.235l-1.468-2.3v6.289a7.356,7.356,0,0,1-2.181,5.216L23.829,43a7.686,7.686,0,0,1-5.217,2.139H12.2l-.063-.012A14.788,14.788,0,0,1,14.774,15.79a14.949,14.949,0,0,1,1.921.125,17.968,17.968,0,0,1,24.081-14.8,17.62,17.62,0,0,1,11.536,15.46,14.716,14.716,0,0,1,12.761,1.967,14.474,14.474,0,0,1,6.017,8.93v.005a14.849,14.849,0,0,1-14.405,17.9H31.979a3.31,3.31,0,0,0-3.3,3.249v6.4L30.295,52.6l.02-.024a2.033,2.033,0,0,1,3.374,2.236l-.016.03-5.348,8.022a2.019,2.019,0,0,1-.657.617,1.9,1.9,0,0,1-1.9,0Z" transform="translate(0)" fill="#73a133"/>
</svg>
