<svg xmlns="http://www.w3.org/2000/svg" xmlns:xlink="http://www.w3.org/1999/xlink" width="70.983" height="70.999" viewBox="0 0 70.983 70.999">
  <defs>
    <clipPath id="clip-path">
      <rect id="Rectangle_108" data-name="Rectangle 108" width="70.983" height="70.999" transform="translate(0 0)" fill="#73a133"/>
    </clipPath>
  </defs>
  <g id="Group_282" data-name="Group 282" transform="translate(0 0)">
    <g id="Group_282-2" data-name="Group 282" clip-path="url(#clip-path)">
      <path id="Path_193" data-name="Path 193" d="M70.965,66.111c-.012-.431-.014-.863-.017-1.3a21.328,21.328,0,0,0-.217-3.552A14.939,14.939,0,0,0,62.109,49.92a.512.512,0,0,1-.147-.238c-.028-.866-.025-1.734-.021-2.6l0-1.12a6.174,6.174,0,0,0-6.433-6.434q-2.469,0-4.937,0H47.206l.258-.664c.579-1.484,1.15-2.948,1.733-4.406a1.09,1.09,0,0,1,.313-.389c.49-.4.988-.795,1.484-1.189.855-.677,1.737-1.377,2.577-2.108a4.418,4.418,0,0,0,1.422-4.721,4.5,4.5,0,0,0-3.534-3.329l-.135-.032c.024-.069.047-.138.071-.2.251-.7.509-1.391.767-2.085.551-1.485,1.121-3.021,1.613-4.559A12.086,12.086,0,0,0,52.108,5.122,11.658,11.658,0,0,0,42.938.089,136.074,136.074,0,0,0,27.953.367,34.518,34.518,0,0,0,12.184,5.875a1.913,1.913,0,0,0-.825,1.614A2.023,2.023,0,0,0,12.5,8.84a11.621,11.621,0,0,0,1.593.568c.263.08.525.159.784.248a2.4,2.4,0,0,1,1.673,3.366,5.886,5.886,0,0,0,.32,4.686q1.234,2.453,2.461,4.908c.023.046.045.092.066.137A4.487,4.487,0,0,0,15.936,26.3a4.587,4.587,0,0,0,1.93,4.874c1.16.9,2.3,1.831,3.446,2.758l.125.1a1.337,1.337,0,0,1,.31.3c.594,1.494,1.173,2.993,1.764,4.518l.26.672-2.089,0c-2.161,0-4.337-.008-6.513.008a5.936,5.936,0,0,0-6,5.117,24.64,24.64,0,0,0-.127,4.032l.015.69c.007.413-.071.532-.494.746A14.562,14.562,0,0,0,.17,61.929a39.009,39.009,0,0,0-.163,4.86c.006.651.012,1.3,0,1.952a2.353,2.353,0,0,0,.454,1.778A2.433,2.433,0,0,0,2.283,71H69.014c.067,0,.135,0,.2,0a1.633,1.633,0,0,0,1.751-1.76c.016-1.062.028-2.1,0-3.126m-3.145,1.6H61.994V53.565a11.133,11.133,0,0,1,5.375,7.56,31.281,31.281,0,0,1,.389,4.841c.017.578.034,1.159.062,1.741M50.341,29.221l.317-3.317a1.258,1.258,0,0,1,1.084.714,1.278,1.278,0,0,1-.173,1.556c-.377.361-.791.7-1.228,1.047M19.427,9.514A5.6,5.6,0,0,0,16.9,6.953l.017-.008c.641-.308,1.267-.608,1.906-.877A35.193,35.193,0,0,1,32.339,3.285q4.9-.029,9.795,0a8.909,8.909,0,0,1,8.439,11.9c-.108.316-.219.629-.332.942A21.681,21.681,0,0,0,47.1,10.49c-.421-.606-.842-1.211-1.239-1.828a1.546,1.546,0,0,0-1.042-.734,1.789,1.789,0,0,0-1.4.416c-.8.62-1.6,1.259-2.377,1.908a9.226,9.226,0,0,1-6.036,2.2,11.905,11.905,0,0,0-6.616,2.132C26.7,15.72,25,16.85,23.277,18L21.3,19.315c-.115-.234-.231-.468-.346-.7-.5-1.015-.978-1.974-1.376-2.979a2.167,2.167,0,0,1,.039-1.414,5.854,5.854,0,0,0-.187-4.708m15.509,6.2a12.647,12.647,0,0,0,8.279-3.03c.283-.236.572-.465.85-.683l.037-.03a12.882,12.882,0,0,1,3.226,10.626H38.383c-1.765,0-2.235.458-2.266,2.225H34.862c0-.123,0-.244,0-.364A1.663,1.663,0,0,0,32.978,22.6q-3.307,0-6.615,0h-2.78c-.165-.752-.028-.866.7-1.354L25.994,20.1q2.136-1.422,4.27-2.852a8.409,8.409,0,0,1,4.672-1.538m7.913,13.2c-.019.386-.408.435-.527.441-.763.036-1.551.04-2.343,0-.387-.017-.588-.24-.6-.665-.015-.748-.012-1.5-.009-2.272l0-.532h3.494c0,.178,0,.356.005.533.008.821.017,1.668-.025,2.492m-11.285,0c-.02.384-.41.433-.528.439-.777.036-1.566.037-2.343,0-.387-.018-.587-.243-.6-.669-.016-.749-.012-1.5-.009-2.275v-.527h3.494c0,.18,0,.36.005.539.009.82.017,1.666-.025,2.49m-6.731-3.041v2.444c0,2.735,1.561,4.307,4.278,4.31h.477c.454,0,.91,0,1.366,0a3.869,3.869,0,0,0,3.9-3.886c0-.195,0-.388,0-.589h1.255c0,.195,0,.393,0,.59a3.889,3.889,0,0,0,3.833,3.882q1.175.029,2.349,0a3.878,3.878,0,0,0,3.839-3.875c.013-.76.01-1.52.006-2.293V25.9h1.223l-.015.265c-.029.558-.058,1.117-.118,1.673a29.628,29.628,0,0,1-3.644,11.4c-.144.256-.252.27-.558.306q-7.547-.024-15.091,0c-.331.035-.409-.052-.555-.311a29.559,29.559,0,0,1-3.781-13.192c0-.054,0-.108,0-.162Zm-4.2,3.344c-.339-.268-.659-.524-.974-.788a1.4,1.4,0,0,1-.487-1.69,1.3,1.3,0,0,1,1.143-.838Zm38.053,38.5h-46.4V46.075a2.944,2.944,0,0,1,3.293-3.292H55.416a2.913,2.913,0,0,1,3.27,3.245ZM9,53.562V67.685H3.314c-.351-4.776,0-9.63,4.288-13.131.425-.346.9-.661,1.4-.992" fill="#73a133"/>
      <path id="Path_194" data-name="Path 194" d="M35.443,55.327a5.014,5.014,0,0,0,.05,10.027h0a5.012,5.012,0,0,0,3.516-8.577,5.14,5.14,0,0,0-3.568-1.45m1.8,5.023a1.758,1.758,0,0,1-1.751,1.742h0A1.762,1.762,0,0,1,33.734,60.3a1.77,1.77,0,0,1,1.748-1.712h.028a1.764,1.764,0,0,1,1.731,1.765" fill="#73a133"/>
      <path id="Path_195" data-name="Path 195" d="M30.089,45.436l-2.161-2.378-1.659,1.647c-1.091,1.079-2.168,2.146-3.229,3.231a1.569,1.569,0,0,0,.071,2.322c.327.347.666.682,1,1.016l3.784,3.79,2.377-2.381L26.53,48.967Z" fill="#73a133"/>
      <path id="Path_196" data-name="Path 196" d="M46.4,46.379c-.6-.6-1.2-1.191-1.783-1.8a9.2,9.2,0,0,1-.684-.832c-.1-.136-.205-.27-.307-.4l-.342-.427L40.705,45.4,44.5,49.161,40.83,52.8l2.241,2.25L44.735,53.4c1.076-1.07,2.132-2.121,3.172-3.187a1.593,1.593,0,0,0-.112-2.435c-.46-.468-.926-.932-1.391-1.395" fill="#73a133"/>
      <path id="Path_197" data-name="Path 197" d="M40.476,45.116l-2.6-1.957L30.5,52.991l2.614,1.939Z" fill="#73a133"/>
    </g>
  </g>
</svg>
