<svg id="Group_304" data-name="Group 304" xmlns="http://www.w3.org/2000/svg" xmlns:xlink="http://www.w3.org/1999/xlink" width="61.2" height="70" viewBox="0 0 61.2 70">
  <defs>
    <clipPath id="clip-path">
      <rect id="Rectangle_112" data-name="Rectangle 112" width="61.2" height="70" fill="#73a133" stroke="#73a133" stroke-width="1.5"/>
    </clipPath>
  </defs>
  <g id="Group_304-2" data-name="Group 304" clip-path="url(#clip-path)">
    <path id="Path_232" data-name="Path 232" d="M0,259.78c.247-1.615.48-3.233.744-4.845.515-3.14,1.06-6.275,1.57-9.415a12.439,12.439,0,0,1,8.764-10.492c2.814-.965,5.634-1.916,8.47-2.814.7-.22,1.053-.509.913-1.26a2.043,2.043,0,0,1,.029-.458h2.17c-.141,3.017,1.16,5.76,1.671,8.8.231-.244.373-.378.5-.527,1.269-1.519,2.525-3.049,3.816-4.549a1.223,1.223,0,0,1,.791-.37,6.305,6.305,0,0,1,2.7.07c.752.34,1.239,1.278,1.824,1.969.924,1.091,1.834,2.194,2.874,3.442.553-3.045,1.823-5.781,1.694-8.847h2.1c.035.059.074.1.077.134.109,1.3.111,1.289,1.4,1.726,3.1,1.051,6.248,1.97,9.271,3.2a11.571,11.571,0,0,1,7.289,8.975c.947,4.955,1.7,9.947,2.529,14.923a1.948,1.948,0,0,1,0,.338Zm25.108-2.3c.681-4.738,1.354-9.417,2.02-14.1a.613.613,0,0,0-.067-.386c-.389-.608-.8-1.2-1.248-1.878l-2.536,3.032-2.514-10c-3.329,1.13-6.588,2.14-9.773,3.341A9.553,9.553,0,0,0,4.774,244.8c-.419,1.931-.7,3.892-1.026,5.842C3.366,252.9,3,255.16,2.617,257.477H10.4l1.031-10.21,2.235.233-.991,9.981Zm33.4-.007a.591.591,0,0,0,.041-.169c-.674-4.06-1.278-8.133-2.047-12.175a9.906,9.906,0,0,0-6.926-7.9c-2.576-.895-5.172-1.732-7.759-2.594-.445-.148-.891-.29-1.4-.455l-2.5,9.974-2.54-3.037a17.17,17.17,0,0,0-1.005,1.533,1.921,1.921,0,0,0-.231,1.058c.4,3.044.835,6.083,1.267,9.123.22,1.547.453,3.092.68,4.632h12.43l-.993-9.975,2.237-.211,1.035,10.2ZM27.325,239.3c.675,1.015,1.319,1.952,1.923,2.914a1.322,1.322,0,0,1,.2.81c-.5,3.623-1.037,7.243-1.556,10.864-.17,1.181-.322,2.364-.485,3.57h6.344c-.015-.241-.013-.424-.039-.6-.654-4.566-1.318-9.131-1.952-13.7a1.639,1.639,0,0,1,.217-1c.59-.965,1.241-1.891,1.884-2.854-.84-1.009-1.645-1.993-2.472-2.958a1.3,1.3,0,0,0-1.6,0c-.827.965-1.631,1.949-2.469,2.955" transform="translate(0 -189.78)" fill="#73a133" stroke="#73a133" stroke-width="1.5"/>
    <path id="Path_233" data-name="Path 233" d="M100.814,16.744c0,1.047-.024,2.095.016,3.14a1.288,1.288,0,0,0,.347.8,5.437,5.437,0,0,1,1.69,5.52,5.5,5.5,0,0,1-4.321,4.173,1.032,1.032,0,0,0-.641.548,13.5,13.5,0,0,1-3.477,5.315q-1.777,1.748-3.521,3.528a5.91,5.91,0,0,1-4.259,2.009c-1.91.02-3.821,0-5.732-.027a5.238,5.238,0,0,1-3.653-1.616q-2.41-2.369-4.758-4.8a11.025,11.025,0,0,1-2.56-4.3.932.932,0,0,0-.78-.708A5.354,5.354,0,0,1,64.906,26.2a5.465,5.465,0,0,1,1.644-5.476,1.445,1.445,0,0,0,.392-.918,25.346,25.346,0,0,1,.69-7.445A16.6,16.6,0,0,1,79.143.781,15.1,15.1,0,0,1,88.09.589,11.873,11.873,0,0,1,95.806,7.5a1.162,1.162,0,0,0,.618.609,5.694,5.694,0,0,1,4.388,5.7c.013.979,0,1.957,0,2.936M71.549,21.505c0,2.231-.095,4.391.026,6.538a9.22,9.22,0,0,0,2.783,6c1.461,1.5,2.948,2.972,4.433,4.447a3.565,3.565,0,0,0,2.647,1.06q2.457-.02,4.914,0a3.621,3.621,0,0,0,2.693-1.115c1.431-1.433,2.871-2.857,4.29-4.3a9.387,9.387,0,0,0,2.869-6.1c.13-2.153.06-4.318.075-6.478,0-.039-.042-.078-.076-.139a9.341,9.341,0,0,1-6.924-4.887c-.293.224-.528.4-.758.581a20.173,20.173,0,0,1-8.106,3.878,29.552,29.552,0,0,1-6.852.521c-.676,0-1.351,0-2.014,0m-2.262-2.292c2.354,0,4.669.025,6.983-.005A17.5,17.5,0,0,0,87.163,15.3c.9-.713,1.716-1.531,2.614-2.34.581.965,1.139,1.9,1.7,2.826,1.594,2.629,4.033,3.565,7.058,3.5,0-1.809.006-3.6-.005-5.391a4.713,4.713,0,0,0-.117-1.147,3.347,3.347,0,0,0-3.452-2.532.73.73,0,0,1-.844-.621,9.514,9.514,0,0,0-.771-1.958,9.579,9.579,0,0,0-8.34-5.28A14.471,14.471,0,0,0,74.247,5.976c-4,3.525-5.382,8.061-4.96,13.237m-.05,8.765V21.806a3.232,3.232,0,0,0,0,6.172M98.551,28a3.294,3.294,0,0,0,2.249-3.326,3.048,3.048,0,0,0-2.249-2.833Z" transform="translate(-53.292 0)" fill="#73a133" stroke="#73a133" stroke-width="1.5"/>
  </g>
</svg>
