<svg id="Group_193" data-name="Group 193" xmlns="http://www.w3.org/2000/svg" xmlns:xlink="http://www.w3.org/1999/xlink" width="71" height="67.731" viewBox="0 0 71 67.731">
  <defs>
    <clipPath id="clip-path">
      <rect id="Rectangle_94" data-name="Rectangle 94" width="71" height="67.731" fill="#73a133"/>
    </clipPath>
  </defs>
  <g id="Group_192" data-name="Group 192" clip-path="url(#clip-path)">
    <path id="Path_95" data-name="Path 95" d="M70.918,47.4c-.106-.161-.206-.329-.307-.5a7.028,7.028,0,0,0-.821-1.178,3.416,3.416,0,0,0-2.369-.951.47.47,0,0,1-.211-.171c-.224-.454-.409-.925-.6-1.411l-.127-.316.126-.144a3.526,3.526,0,0,0-.106-5.1,1.56,1.56,0,0,1-.5-1.258q.015-7.909.011-15.819,0-6.063.005-12.126a8.708,8.708,0,0,0-2.3-6.35A6.512,6.512,0,0,0,58.854,0h0L7.2,0C3.66.006.824,2.546.145,6.325a2.263,2.263,0,0,1-.076.291L.017,6.8,0,47.535l.072.3a1.473,1.473,0,0,1,.066.228c.555,3.228,3.157,6.616,7.579,6.408,1.571-.07,3.18-.051,4.734-.035.761.008,1.518.015,2.282.016A1.93,1.93,0,0,0,16.925,52.6a1.753,1.753,0,0,0-.492-1.287,2.284,2.284,0,0,0-1.668-.6L12.777,50.7c-1.757-.009-3.514-.016-5.269.018h-.1A3.158,3.158,0,0,1,4.22,48.539a6.709,6.709,0,0,1-.452-2.4c-.027-6.146-.024-12.289-.022-18.434l0-5.669H62.192V34.875a3.687,3.687,0,0,0-2.5,1.093.434.434,0,0,1-.183,0c-.233-.079-.457-.181-.682-.282a7.815,7.815,0,0,0-.916-.362c-.208-.061-.234-.069-.255-.364a3.515,3.515,0,0,0-3.525-3.435,24.192,24.192,0,0,0-3,.047,3.134,3.134,0,0,0-2.963,2.7c-.066.865-.376,1.213-1.275,1.435a1.823,1.823,0,0,0-.606.277.333.333,0,0,1-.137.073s-.06-.005-.226-.16a3.517,3.517,0,0,0-4.989.07c-.6.573-1.236,1.2-1.853,1.861A3.557,3.557,0,0,0,39,42.606c.091.107.185.21.276.31l-.12.308c-.19.49-.375.965-.59,1.419a.436.436,0,0,1-.166.132A3.635,3.635,0,0,0,34.767,48.7c0,.56,0,1.119,0,1.7v.308H32.528c-1.706,0-3.413,0-5.123.005a2.047,2.047,0,0,0-1.551.631,1.85,1.85,0,0,0-.43,1.456,1.891,1.891,0,0,0,2.053,1.653q3.419.006,6.837,0h3.418c.781,0,.781,0,1.057.7l.073.19a4.194,4.194,0,0,0,.351.763c.12.194.136.218-.075.441a3.485,3.485,0,0,0-.059,4.825,28.153,28.153,0,0,0,2.068,2.062c1.1,1,2.926,1.417,4.069.381.784-.711,1.294-.5,2.215-.1l.191.081c.394.163.441.221.462.553a3.512,3.512,0,0,0,3.6,3.377c.441,0,.882.01,1.325.01q.612,0,1.223-.014c1.5-.039,3.13-1.005,3.268-2.553.1-1.129.638-1.482,1.72-1.8l.21-.094c.158-.106.19-.131.422.089a3.476,3.476,0,0,0,4.829.051c.716-.65,1.41-1.347,2.061-2.068a3.246,3.246,0,0,0,.3-4.19c-.609-.7-.52-1.158-.087-1.919a2.276,2.276,0,0,0,.182-.449,1.381,1.381,0,0,1,.095-.254.363.363,0,0,1,.038-.052,3.794,3.794,0,0,0,3.7-2.8L71,47.522Zm-7.9,10.809a5.7,5.7,0,0,1,.7.773,4.139,4.139,0,0,1-.684.772,5.464,5.464,0,0,1-.741.685,4.213,4.213,0,0,1-.8-.7,1.985,1.985,0,0,0-2.759-.374,29.276,29.276,0,0,1-3.148,1.3,1.968,1.968,0,0,0-1.615,2.12c0,.238,0,.443,0,.621,0,.219,0,.444-.007.569-.13.011-.362.01-.589.005-.179,0-.39-.005-.628-.005l-.437.005c-.186,0-.377.005-.494,0-.009-.119-.008-.311-.006-.5v-.415c-.007-1.583-.486-2.022-1.834-2.467a22.936,22.936,0,0,1-2.944-1.231,2,2,0,0,0-2.762.372,5.692,5.692,0,0,1-.766.693,4.086,4.086,0,0,1-.772-.685,6.353,6.353,0,0,1-.688-.739,4.069,4.069,0,0,1,.663-.749,2.031,2.031,0,0,0,.41-2.813,26.666,26.666,0,0,1-1.273-3.081,1.994,1.994,0,0,0-2.169-1.655,5.194,5.194,0,0,1-1.08-.06,4.218,4.218,0,0,1-.063-1.067,6.9,6.9,0,0,1,.03-.961,4.121,4.121,0,0,1,.99-.065c1.466-.013,1.913-.582,2.308-1.771.235-.708.545-1.417.844-2.1.128-.292.256-.584.379-.878.092-.22.189-.437.3-.693l.3-.672-.164-.231c-.085-.121-.166-.246-.248-.373a6.05,6.05,0,0,0-.711-.946c-.262-.279-.536-.567-.566-.621a4.126,4.126,0,0,1,.623-.693,4.767,4.767,0,0,1,.824-.741,4.15,4.15,0,0,1,.828.709,2.013,2.013,0,0,0,2.71.34,29.4,29.4,0,0,1,3.144-1.311,2,2,0,0,0,1.617-2.127,4.847,4.847,0,0,1,.072-1.094,7.957,7.957,0,0,1,2.028-.043,4.15,4.15,0,0,1,.06.96,2.078,2.078,0,0,0,1.762,2.312,27.3,27.3,0,0,1,3.138,1.31,2,2,0,0,0,2.647-.369,4.727,4.727,0,0,1,.833-.719,4.088,4.088,0,0,1,.8.718c.162.164.3.3.422.417s.213.207.286.285c-.074.078-.183.185-.29.291s-.25.244-.4.4c-1.046,1.069-1.016,1.7-.407,2.925a26.606,26.606,0,0,1,1.266,3.087,2.03,2.03,0,0,0,2.121,1.629,4.4,4.4,0,0,1,1.1.09,4.235,4.235,0,0,1,.07,1.143l0,.375c0,.2,0,.415-.008.537-.129.012-.36.012-.581.009h-.356c-1.556,0-1.968.447-2.416,1.787a23.765,23.765,0,0,1-1.233,2.945,2,2,0,0,0,.364,2.764m-.777-40.024H3.75l-.008-2.611c-.011-2.473-.022-5.03.038-7.539A6.329,6.329,0,0,1,4.429,5.5,3.035,3.035,0,0,1,7.392,3.738H7.4q10.9.023,21.805.011l29.055,0a3.635,3.635,0,0,1,3.94,3.74c.063,2.117.055,4.276.047,6.364q-.006,1.357-.005,2.714Z" fill="#73a133"/>
    <path id="Path_96" data-name="Path 96" d="M27.74,39.632a1.888,1.888,0,0,0-.009,2.76,1.811,1.811,0,0,0,1.239.5l.077,0a2.169,2.169,0,0,0,1.5-.768q1.8-2.006,3.586-4.03a2.419,2.419,0,0,0,0-3.519q-1.761-2-3.542-3.977a1.9,1.9,0,0,0-2.787-.372,1.762,1.762,0,0,0-.648,1.233,2.248,2.248,0,0,0,.639,1.639c.695.787,1.393,1.572,2.107,2.375l.771.866-.66.74c-.77.863-1.521,1.7-2.267,2.552" fill="#73a133"/>
    <path id="Path_97" data-name="Path 97" d="M15.016,32.966a1.877,1.877,0,1,0-2.808-2.485c-1.27,1.4-2.533,2.816-3.775,4.245a2.344,2.344,0,0,0,.021,3.251c.411.484.834.956,1.258,1.428l1.02,1.147c.513.582,1.026,1.163,1.557,1.728a1.908,1.908,0,0,0,1.394.618,1.865,1.865,0,0,0,1.741-2.5,3.244,3.244,0,0,0-.624-.923c-.746-.852-1.5-1.7-2.269-2.561l-.511-.572,1.892-2.127c.372-.411.744-.823,1.1-1.246" fill="#73a133"/>
    <path id="Path_98" data-name="Path 98" d="M23.013,28.762a1.82,1.82,0,0,0-2.088,1.344c-.285,1.066-.539,2.141-.793,3.218l-.559,2.347c-.474,1.977-.947,3.952-1.4,5.933a1.871,1.871,0,0,0,1.8,2.337,1.971,1.971,0,0,0,1.837-1.507,2.351,2.351,0,0,0,.068-.233l2.679-11.254.014-.108a1.933,1.933,0,0,0-1.559-2.077" fill="#73a133"/>
    <path id="Path_99" data-name="Path 99" d="M53.861,5.93c-3.314-.046-6.679-.033-9.938-.019l-2.507.008a4.821,4.821,0,0,0-1.275.2,5.112,5.112,0,0,0,1.2,10.04c1.463.036,2.947.027,4.381.019l1.418-.008.5.007c.568,0,1.135,0,1.7.01s1.131.009,1.7.009c.851,0,1.708-.01,2.559-.047a6.473,6.473,0,0,0,2.615-.664A5.1,5.1,0,0,0,53.861,5.93m1.116,5.652a1.31,1.31,0,0,1-1.278.827c-4.052.015-8.1.023-12.156,0a1.354,1.354,0,0,1-1.4-1.353,1.3,1.3,0,0,1,.383-.955,1.527,1.527,0,0,1,1.06-.411q1.246-.018,2.491-.016.894,0,1.789,0l1.793,0,1.677-.005c1.419-.007,2.837-.012,4.258.01a1.552,1.552,0,0,1,1.326.666,1.268,1.268,0,0,1,.062,1.232" fill="#73a133"/>
    <path id="Path_100" data-name="Path 100" d="M25.257,5.911a5.149,5.149,0,0,0-5.1,5.114,5.152,5.152,0,0,0,5.127,5.143H25.3a5.129,5.129,0,0,0-.044-10.257m-1.326,5.146a1.35,1.35,0,0,1,.39-.975,1.332,1.332,0,0,1,.956-.4,1.2,1.2,0,0,1,.979.413,1.327,1.327,0,0,1,.392.953,1.379,1.379,0,0,1-.427.965,1.3,1.3,0,0,1-.961.393,1.356,1.356,0,0,1-1.329-1.353" fill="#73a133"/>
    <path id="Path_101" data-name="Path 101" d="M13.307,5.911A5.012,5.012,0,0,0,9.691,7.4a5.131,5.131,0,0,0,3.588,8.764h.013a5.116,5.116,0,0,0,5.112-5.15,5.137,5.137,0,0,0-5.1-5.107m-.016,6.5h0a1.338,1.338,0,0,1-.95-.406,1.369,1.369,0,0,1-.4-.978,1.334,1.334,0,0,1,.409-.957,1.347,1.347,0,0,1,.945-.384h.028a1.344,1.344,0,0,1,1.327,1.343,1.369,1.369,0,0,1-.4.98,1.334,1.334,0,0,1-.948.4" fill="#73a133"/>
    <path id="Path_102" data-name="Path 102" d="M52.9,40.713h-.018a8.917,8.917,0,0,0,.007,17.833h.02a8.95,8.95,0,0,0,8.909-8.9A8.94,8.94,0,0,0,52.9,40.713M49.258,53.281A5.156,5.156,0,0,1,52.9,44.468H52.9a5.16,5.16,0,1,1-3.646,8.813" fill="#73a133"/>
  </g>
</svg>
