<svg xmlns="http://www.w3.org/2000/svg" width="63.522" height="70" viewBox="0 0 63.522 70">
  <path id="java-script" d="M43.359,47.09A14.214,14.214,0,0,1,35.7,45.7a5.036,5.036,0,0,1-1.874-3.536.776.776,0,0,0-.793-.768c-1.108-.013-2.216-.01-3.324,0a.74.74,0,0,0-.81.652A8.185,8.185,0,0,0,31.539,48.5a13.97,13.97,0,0,0,7.8,2.934,28.215,28.215,0,0,0,8.866-.376,10.941,10.941,0,0,0,5.874-3.165,8.184,8.184,0,0,0,1.386-7.808,6.542,6.542,0,0,0-4.306-3.831c-4.483-1.573-9.325-1.454-13.9-2.649-.793-.25-1.763-.521-2.116-1.361A2.991,2.991,0,0,1,36.14,28.9a8.952,8.952,0,0,1,4.721-1.175,14.247,14.247,0,0,1,6.595.944,5.025,5.025,0,0,1,2.4,3.473.85.85,0,0,0,.8.825c1.1.022,2.2.006,3.3.007a.8.8,0,0,0,.866-.587,8.518,8.518,0,0,0-4.153-7.371,20.577,20.577,0,0,0-11.264-1.724h0a12.269,12.269,0,0,0-7.617,3.06,7.611,7.611,0,0,0-1.52,7.919,6.754,6.754,0,0,0,4.264,3.716C39,39.6,43.9,39.084,48.408,40.511c.879.3,1.9.754,2.172,1.733a3.467,3.467,0,0,1-.944,3.312,10.4,10.4,0,0,1-6.277,1.535ZM63.726,17.531q-13.084-7.4-26.175-14.785a5.871,5.871,0,0,0-5.731,0L5.74,17.473a5.4,5.4,0,0,0-2.815,4.7v29.66a5.434,5.434,0,0,0,2.923,4.743c2.5,1.359,4.924,2.857,7.466,4.126a10.723,10.723,0,0,0,9.584.263,7.446,7.446,0,0,0,3.482-6.724c.019-9.788,0-19.577.007-29.366a.769.769,0,0,0-.725-.89c-1.111-.018-2.223-.01-3.334,0a.733.733,0,0,0-.8.748c-.015,9.726,0,19.454-.009,29.181A3.292,3.292,0,0,1,19.39,57a5.363,5.363,0,0,1-4.34-.581L8.11,52.5a.83.83,0,0,1-.471-.824q0-14.678,0-29.356a.906.906,0,0,1,.55-.911q13-7.32,25.988-14.655a.9.9,0,0,1,1.021,0q13,7.322,25.991,14.649a.917.917,0,0,1,.546.915q0,14.676,0,29.354a.847.847,0,0,1-.465.834q-12.8,7.236-25.609,14.452c-.408.227-.891.593-1.368.318-2.237-1.266-4.446-2.581-6.676-3.86a.721.721,0,0,0-.8-.048,18.264,18.264,0,0,1-3.087,1.441c-.483.2-1.078.251-1.41.7A4.6,4.6,0,0,0,23.821,66.6q3.911,2.265,7.826,4.525a5.7,5.7,0,0,0,5.794.161q13.041-7.354,26.082-14.714a5.447,5.447,0,0,0,2.925-4.742V22.172a5.389,5.389,0,0,0-2.722-4.641Z" transform="translate(-2.925 -2)" fill="#73a133"/>
</svg>
