<svg id="Group_305" data-name="Group 305" xmlns="http://www.w3.org/2000/svg" xmlns:xlink="http://www.w3.org/1999/xlink" width="105" height="105" viewBox="0 0 105 105">
  <defs>
    <clipPath id="clip-path">
      <rect id="Rectangle_113" data-name="Rectangle 113" width="105" height="105" fill="#73a133"/>
    </clipPath>
  </defs>
  <g id="Group_305-2" data-name="Group 305" clip-path="url(#clip-path)">
    <path id="Path_234" data-name="Path 234" d="M0,174.862c.174-.687.332-1.379.524-2.061a14.313,14.313,0,0,1,12.719-10.422c.228-.019.456-.041.793-.072-2.677-3.867-2.469-8.136-1.686-12.307a10.157,10.157,0,0,1,11.122-7.935,10.423,10.423,0,0,1,9.3,9.748c.084,1.6.058,3.213.007,4.817-.06,1.871-.6,3.3-1.993,5.63H42.111c-.19-.235-.358-.462-.546-.672a14.513,14.513,0,0,1-3.824-9.795c-.031-3.212-.026-6.426,0-9.638a14.761,14.761,0,0,1,29.522,0c.025,3.041-.012,6.084.009,9.125a14.776,14.776,0,0,1-4.048,10.532c-.11.118-.208.246-.4.471h11.4c-2.686-4-2.493-8.38-1.561-12.678,1.056-4.866,5.942-8.007,11.021-7.543a10.359,10.359,0,0,1,9.251,9.442c.114,1.6.078,3.21.059,4.815a10.25,10.25,0,0,1-1.869,5.724,40.839,40.839,0,0,1,5.729,1.749,13.75,13.75,0,0,1,7.955,10.508,3.921,3.921,0,0,0,.193.561v10.049a2.5,2.5,0,0,1-2.627,1.52c-4.852-.04-9.7-.017-14.556-.016H86.543c0,2.9-.049,5.661.022,8.422a2.756,2.756,0,0,1-1.458,2.789H44.092c-1.217-.829-1.633-1.613-1.364-2.574.3-1.072,1.095-1.526,2.681-1.527h3.906a1.656,1.656,0,0,0-.045-.36q-5.371-13.055-10.776-26.1a1.114,1.114,0,0,0-.92-.445c-7.463.722-14.046,7.011-14.771,14.5-.39,4.028-.168,8.115-.216,12.176,0,.054.067.109.148.235,1.145,0,2.337-.039,3.525.01a1.963,1.963,0,0,1,1.872,2.7,6.129,6.129,0,0,1-1.268,1.385H19.893a2.739,2.739,0,0,1-1.458-2.788c.075-2.458.024-4.92.019-7.38,0-.325-.036-.65-.06-1.043H17.184c-4.852,0-9.7-.025-14.556.017A2.512,2.512,0,0,1,0,184.911V174.862M82.417,193.5c0-3.741.137-7.393-.028-11.033A17.048,17.048,0,0,0,67.569,166.6a.942.942,0,0,0-1.2.7q-5.212,12.73-10.477,25.439c-.094.229-.146.476-.231.758ZM41.842,146.385c0,1.925-.031,3.731.006,5.536a10.656,10.656,0,0,0,19.188,6.148c2.737-3.561,2.065-7.656,2.1-11.692a22.373,22.373,0,0,1-10.142-2.551,1.161,1.161,0,0,0-.933-.029,22.429,22.429,0,0,1-10.218,2.588M86.53,182.263H100.9c0-1.781,0-3.515,0-5.248a10.167,10.167,0,0,0-10.509-10.559c-3.794-.012-7.587,0-11.381,0-.283,0-.566.035-1,.065a21.553,21.553,0,0,1,8.528,15.742m-59.6-15.81c-4.155,0-8.153,0-12.151,0-.376,0-.752,0-1.128.019a10.192,10.192,0,0,0-9.093,7.14c-.842,2.838-.328,5.747-.459,8.623H18.423c1.57-8.252,1.959-8.976,8.507-15.783M52.5,190.2,62.272,166.5H54.547c0,1.644.016,3.24-.006,4.836a1.969,1.969,0,0,1-1.476,1.987,1.8,1.8,0,0,1-2.163-.739,3.093,3.093,0,0,1-.433-1.528c-.055-1.519-.02-3.041-.02-4.56H42.725L52.5,190.2m-23.736-36-.067,0c0-.648.02-1.3,0-1.944a6.3,6.3,0,0,0-5.978-6.114,6.172,6.172,0,0,0-6.556,5.676,29.769,29.769,0,0,0,.008,4.9,6.256,6.256,0,0,0,12.373.533,26.194,26.194,0,0,0,.223-3.05m47.455.049.084.006c0,.648-.018,1.3,0,1.944a6.336,6.336,0,0,0,6.069,6.146,6.2,6.2,0,0,0,6.461-5.686,30.031,30.031,0,0,0-.018-5A6.257,6.257,0,0,0,76.5,151a27.277,27.277,0,0,0-.281,3.248m-13.127-12a10.34,10.34,0,0,0-5.445-9.323,10.213,10.213,0,0,0-11.225.595,10.363,10.363,0,0,0-4.583,8.724,15.94,15.94,0,0,0,8.593-2.3,3.418,3.418,0,0,1,4.123-.013,15.968,15.968,0,0,0,8.536,2.319" transform="translate(0 -92.626)" fill="#73a133"/>
    <path id="Path_235" data-name="Path 235" d="M150.918,0a4.775,4.775,0,0,1,3.314,3.679c.36,1.383.9,2.72,1.3,4.093a.875.875,0,0,0,1.014.737c1.6-.034,3.211-.025,4.816-.007,2.247.025,3.723,1,4.292,2.8.581,1.838-.038,3.449-1.846,4.776-1.458,1.07-2.923,2.133-4.383,3.2-.024.018-.033.058-.092.171.557,1.715,1.142,3.49,1.711,5.27a4.042,4.042,0,0,1-6.362,4.635c-1.472-1.052-2.931-2.123-4.4-3.183a1.273,1.273,0,0,0-.252-.093c-1.485,1.078-2.994,2.189-4.518,3.277a4.045,4.045,0,0,1-6.366-4.635c.508-1.591,1.059-3.17,1.521-4.774a1.124,1.124,0,0,0-.311-.969c-1.321-1.025-2.7-1.975-4.05-2.964a4.044,4.044,0,0,1,2.318-7.506c1.673-.036,3.348-.031,5.021,0a.876.876,0,0,0,1.016-.735c.4-1.373.941-2.709,1.3-4.093A4.783,4.783,0,0,1,149.277,0Zm6.265,26.1c-.756-2.308-1.421-4.335-2.082-6.363-.519-1.591-.331-2.175,1.009-3.151,1.727-1.257,3.455-2.512,5.4-3.926-.6-.03-.928-.061-1.256-.062-1.878,0-3.755.01-5.633-.007a2.127,2.127,0,0,1-2.406-1.762c-.585-1.78-1.146-3.569-1.722-5.353-.095-.293-.211-.579-.418-1.142-.75,2.323-1.393,4.332-2.046,6.337-.493,1.518-1.023,1.914-2.6,1.922-1.912.01-3.824,0-5.736.007-.239,0-.478.056-.934.113,1.873,1.359,3.554,2.577,5.234,3.8,1.453,1.055,1.623,1.587,1.063,3.308l-2.044,6.287c1.944-1.416,3.639-2.653,5.337-3.888,1.425-1.036,2.075-1.039,3.486-.013,1.7,1.237,3.4,2.478,5.347,3.9" transform="translate(-97.597)" fill="#73a133"/>
    <path id="Path_236" data-name="Path 236" d="M123.688,373.15c-.162-.114-.327-.225-.487-.342a1.94,1.94,0,0,1-.836-2.3,2.026,2.026,0,0,1,3.877,0,1.943,1.943,0,0,1-.837,2.3c-.16.117-.324.229-.486.343Z" transform="translate(-88.825 -268.15)" fill="#73a133"/>
  </g>
</svg>
