<svg xmlns="http://www.w3.org/2000/svg" xmlns:xlink="http://www.w3.org/1999/xlink" width="71.187" height="71.2" viewBox="0 0 71.187 71.2">
  <defs>
    <clipPath id="clip-path">
      <rect id="Rectangle_106" data-name="Rectangle 106" width="71.187" height="71.2" transform="translate(0 0)" fill="#73a133"/>
    </clipPath>
  </defs>
  <g id="Group_280" data-name="Group 280" transform="translate(0 0)">
    <g id="Group_279" data-name="Group 279" clip-path="url(#clip-path)">
      <path id="Path_190" data-name="Path 190" d="M71.142,30.723c-1.1-2.632-2.185-3.353-5.067-3.353l-1.111,0c-.956,0-1.909-.006-2.864.011h-.086a.727.727,0,0,1-.063-.136c-.625-1.616-1.219-3.046-1.819-4.373-.036-.08-.049-.125-.056-.13a.861.861,0,0,1,.1-.113c1.1-1.065,2.177-2.152,3.253-3.243a4.228,4.228,0,0,0,.033-6.25q-2.688-2.732-5.421-5.42a4.235,4.235,0,0,0-6.2.017c-1.122,1.106-2.241,2.217-3.337,3.4a.665.665,0,0,1-.139-.052C47.185,10.549,45.62,9.864,44,9.252a1.52,1.52,0,0,1-.166-.073A.682.682,0,0,1,43.818,9c.026-1.531.022-3.063.007-4.594A4.272,4.272,0,0,0,39.375,0q-3.759-.009-7.52,0a4.276,4.276,0,0,0-4.49,4.5c-.008,1.531-.015,3.062.007,4.592,0,.047,0,.076,0,.087a1.092,1.092,0,0,1-.138.063c-1.41.543-2.839,1.136-4.368,1.813-.081.036-.127.052-.137.061a.734.734,0,0,1-.06-.056c-.972-1.007-2.033-2.072-3.341-3.352a4.213,4.213,0,0,0-6.146-.026q-2.758,2.71-5.47,5.468a4.2,4.2,0,0,0,.018,6.2c1.1,1.126,2.217,2.245,3.4,3.342a.667.667,0,0,1-.051.141c-.571,1.286-1.234,2.81-1.822,4.37-.045.12-.075.162-.073.165A.84.84,0,0,1,9,27.38c-1.531-.025-3.062-.02-4.593-.007A4.262,4.262,0,0,0,0,31.818q-.01,3.76,0,7.521A4.273,4.273,0,0,0,4.5,43.83l.262,0c1.443.007,2.887.013,4.33-.009h.082a.909.909,0,0,1,.065.142c.635,1.638,1.231,3.068,1.821,4.371.035.077.047.12.053.127a.74.74,0,0,1-.1.114C9.9,49.66,8.8,50.76,7.711,51.87a4.218,4.218,0,0,0-.028,6.148C9.4,59.772,11.145,61.5,12.89,63.227l.261.259a2.245,2.245,0,0,0,.941.579,1.574,1.574,0,0,0,1.85-.744,1.676,1.676,0,0,0-.328-2.15l-1.789-1.789q-1.788-1.786-3.574-3.577c-.661-.663-.662-1.025-.007-1.686s1.332-1.335,2-2,1.309-1.308,1.961-1.964a1.8,1.8,0,0,0,.366-2.428c-.846-1.931-1.66-3.89-2.418-5.824-.394-1-.771-1.449-1.969-1.453q-1.4-.006-2.8,0l-2.8,0c-.908,0-1.185-.283-1.186-1.2q-.006-3.621,0-7.244c0-.986.263-1.241,1.276-1.243l5.469,0c1.246,0,1.617-.438,2.023-1.478.773-1.981,1.577-3.917,2.392-5.757a1.86,1.86,0,0,0-.412-2.538l-3.865-3.866c-.69-.694-.691-1.05-.008-1.735q2.532-2.542,5.072-5.074c.744-.743,1.069-.738,1.833.023l1.6,1.6q1.131,1.131,2.264,2.262a1.736,1.736,0,0,0,2.471.338,25.325,25.325,0,0,1,5.711-2.369,1.752,1.752,0,0,0,1.528-2.044V7.686q0-1.549,0-3.1c0-.916.281-1.195,1.189-1.2q3.654-.006,7.311,0c.907,0,1.184.282,1.187,1.2,0,.982,0,1.962,0,2.943l0,2.662A1.709,1.709,0,0,0,41.9,12.14a25.384,25.384,0,0,1,5.773,2.395,1.745,1.745,0,0,0,2.475-.338q.984-.978,1.961-1.958,1-1,2-2c.639-.635,1.024-.638,1.639-.025q2.616,2.6,5.216,5.218c.62.622.617,1.006-.012,1.641-.718.725-1.442,1.447-2.164,2.169l-1.8,1.8a1.8,1.8,0,0,0-.39,2.422c.9,2.046,1.688,3.952,2.422,5.823.4,1.038.776,1.471,2.023,1.475l5.535,0c.924,0,1.207.278,1.208,1.178q.006,3.656,0,7.312c0,.913-.279,1.193-1.191,1.2q-1.5,0-3,0H61.074A1.814,1.814,0,0,0,59.038,41.9c-.743,1.9-1.556,3.856-2.419,5.823a1.8,1.8,0,0,0,.371,2.426L60.9,54.072c.709.713.708,1.063-.011,1.784l-5.17,5.174a2.128,2.128,0,0,0-.73,1.5,1.7,1.7,0,0,0,1.634,1.607A2.12,2.12,0,0,0,58.1,63.44l.911-.906c1.491-1.483,2.981-2.966,4.456-4.465a4.225,4.225,0,0,0-.032-6.251c-1.076-1.089-2.153-2.177-3.252-3.243-.064-.061-.091-.1-.1-.1a.687.687,0,0,1,.051-.144c.595-1.312,1.189-2.742,1.821-4.37.031-.082.053-.123.053-.135.017,0,.049,0,.1,0,1.577.023,3.153.017,4.728.006a4.1,4.1,0,0,0,3.444-1.667,6.2,6.2,0,0,0,.629-1.168c.072-.161.145-.321.221-.476l.065-.127V30.953Z" fill="#73a133"/>
      <path id="Path_191" data-name="Path 191" d="M44.068,46.227a1.833,1.833,0,0,0-2.326,1.43l-2.57,6.818c-.1-.516-.185-1.014-.262-1.514a.939.939,0,0,1,.074-.522c.381-.746.782-1.482,1.184-2.218.24-.439.48-.88.716-1.322A1.965,1.965,0,0,0,41,46.944a1.89,1.89,0,0,0-1.706-.816c-.406,0-.811,0-1.217,0a10.68,10.68,0,0,0-2.454-21.071h-.034a10.683,10.683,0,0,0-2.467,21.071c-.406,0-.812,0-1.218,0a1.89,1.89,0,0,0-1.707.816,1.961,1.961,0,0,0,.114,1.955c.37.694.746,1.387,1.122,2.078l.873,1.6c.015.026.032.051.046.076q-.157.909-.333,1.816l-2.526-6.684c-.537-1.424-1.12-1.762-2.6-1.531A12.248,12.248,0,0,0,16.4,58.5q-.007,2.243,0,4.487c0,2.034,0,4.069-.01,6.1a2.209,2.209,0,0,0,.971,2.013l.151.1H53.853l.172-.307c.063-.112.144-.225.223-.337a2.133,2.133,0,0,0,.514-1.185c.051-4.1.086-7.8,0-11.57a12.289,12.289,0,0,0-10.7-11.574M28.3,35.747a7.347,7.347,0,0,1,7.323-7.3,7.335,7.335,0,0,1,7.273,7.3,7.357,7.357,0,0,1-7.3,7.3h-.026a7.314,7.314,0,0,1-7.269-7.3M36.142,50.52a3.848,3.848,0,0,0-.554,1.158,3.246,3.246,0,0,0-.127-.329c-.279-.62-.6-1.206-.946-1.824h2.191a8.517,8.517,0,0,1-.564.995m-1.268,6.952a26.656,26.656,0,0,0,.72-3.577c.348,1.584.642,3.214.926,4.79l.293,1.616a.932.932,0,0,1,.027.278c-.394,1.07-.8,2.136-1.23,3.269-.068-.162-.142-.32-.225-.475a7.459,7.459,0,0,1-.511-5.9m-15.06,8.3c0-2.756,0-5.494.013-8.232a4.733,4.733,0,0,1,.226-1.245,8.864,8.864,0,0,1,6.532-6.522l.042-.012,0,.006q2.685,7.128,5.4,14.247l1.41,3.747H19.815Zm17.93,1.994.495-1.295c.581-1.521,1.154-3.019,1.722-4.518l.429-1.133q2.07-5.461,4.12-10.93a1.045,1.045,0,0,1,.053-.127c.029.005.069.013.124.026a9,9,0,0,1,6.7,8.439c.029,2.323.022,4.646.015,6.985L51.4,67.767Z" fill="#73a133"/>
      <path id="Path_192" data-name="Path 192" d="M48.35,44.933a2,2,0,0,0-.377,1.747,1.581,1.581,0,0,0,1.008,1.028,1.733,1.733,0,0,0,2.134-.818,19,19,0,0,0,3.557-13.232,19.211,19.211,0,0,0-18.1-17.233,18.862,18.862,0,0,0-14.052,5.22,20.033,20.033,0,0,0-6.12,14.664v.008a18.725,18.725,0,0,0,3.7,10.6,2.62,2.62,0,0,0,.3.374,1.724,1.724,0,0,0,1.209.542,1.668,1.668,0,0,0,.981-.339,1.6,1.6,0,0,0,.515-2.142,3.332,3.332,0,0,0-.316-.488l-.11-.151a15.464,15.464,0,0,1-2.716-11.431A15.83,15.83,0,0,1,37.374,19.908,15.83,15.83,0,0,1,50.933,39.426a16.1,16.1,0,0,1-2.583,5.507" fill="#73a133"/>
    </g>
  </g>
</svg>
