<svg xmlns="http://www.w3.org/2000/svg" xmlns:xlink="http://www.w3.org/1999/xlink" width="71" height="70.971" viewBox="0 0 71 70.971">
  <defs>
    <clipPath id="clip-path">
      <rect id="Rectangle_98" data-name="Rectangle 98" width="71" height="70.971" transform="translate(0 0)" fill="#73a133"/>
    </clipPath>
  </defs>
  <g id="Group_207" data-name="Group 207" transform="translate(0 0)">
    <g id="Group_206" data-name="Group 206" clip-path="url(#clip-path)">
      <path id="Path_126" data-name="Path 126" d="M62.987,26.7a2.364,2.364,0,0,0-.255-.219c.07-.074.135-.143.2-.208l7.2-7.2a2.189,2.189,0,0,0,.827-2.091c-.114-.461-.5-1.088-1.706-1.46q-9.22-2.85-18.451-5.68a.862.862,0,0,1-.681-.636A14.141,14.141,0,0,0,24.031,8.188a.961.961,0,0,1-.692.61q-6.117,1.891-12.229,3.8-4.6,1.434-9.2,2.863A2.829,2.829,0,0,0,.057,16.8L0,16.907v1.128l.42.5c.225.272.451.544.7.792q3.563,3.585,7.147,7.149a2.006,2.006,0,0,0,.293.239L4.882,32.837c-.395.658-.791,1.315-1.181,1.974a2.193,2.193,0,0,0-.331,1.9A2.221,2.221,0,0,0,4.88,37.95c1.653.554,3.306,1.1,4.972,1.658l1.9.633V60.309c0,1.572.3,2,1.8,2.564l20.811,7.8a2.761,2.761,0,0,1,.315.152l.284.144H35.99l2.118-.729c1.442-.5,2.885-.995,4.332-1.48q6.1-2.04,12.208-4.069l5.524-1.838a2.129,2.129,0,0,0,1.8-2.51V39.693L68,37.788q.687-.216,1.373-.436a1.9,1.9,0,0,0,.821-3.446q-3.6-3.61-7.2-7.2M32.695,35.694,28.9,42.02,7.925,35.028l3.8-6.322Zm-17.2,5.8,13.143,4.37c1.512.5,2.157.26,2.99-1.124l1.986-3.3V66.4l-4.7-1.76Q22.356,62.187,15.8,59.739c-.291-.109-.32-.151-.319-.451q.027-6.934.015-13.869ZM36.9,24.59h-.076a10.474,10.474,0,0,1-10.4-10.578,10.254,10.254,0,0,1,3.124-7.264A10.422,10.422,0,1,1,36.9,24.59m-10.6-1.033a14.122,14.122,0,0,0,20.476.719,1.07,1.07,0,0,1,.3-.167c2.212.709,4.415,1.448,6.722,2.221l.393.131-1.732.578q-8.267,2.755-16.541,5.5a1.313,1.313,0,0,1-.728.035q-8.331-2.745-16.649-5.528l-1.759-.587,2.464-.819q3.273-1.086,6.542-2.185c.3-.1.347-.082.516.1M64,19.92c-1.385,1.383-2.77,2.765-4.14,4.163-.214.218-.306.238-.611.134-2.566-.872-5.137-1.727-7.744-2.595l-2.186-.729a14.9,14.9,0,0,0,1.713-7.08L65.61,18.307ZM37.4,40.035l3.636,4.545a2.061,2.061,0,0,0,2.732.821l9.455-2.967,5.008-1.568V44.7q0,7.267.013,14.538c0,.314-.009.33-.3.425q-8.115,2.679-16.219,5.4L37.4,66.5Zm5.824,1.323c-1.223-1.566-2.465-3.114-3.726-4.687l-.875-1.092h.005l4.6-1.533q7.988-2.659,15.97-5.331c.347-.117.446-.1.674.139,1.375,1.409,2.77,2.8,4.164,4.192l1.579,1.577L56.152,37.6q-6.2,1.944-12.393,3.9c-.314.1-.355.077-.53-.148M17.683,22.227c-2.008.67-4.015,1.339-6.028,1.987a.919.919,0,0,1-.326.01c-1.762-1.723-3.5-3.468-5.244-5.212l-.7-.715L22.695,12.9c.008.218.014.434.021.651a21.935,21.935,0,0,0,.228,2.94,22.062,22.062,0,0,0,.751,2.844c.083.266.167.534.248.8Z" fill="#73a133"/>
      <path id="Path_127" data-name="Path 127" d="M42.645,8.561a5.2,5.2,0,0,0-.729.643l-6.4,6.407-.29-.285c-.326-.322-.652-.644-.985-.959A1.874,1.874,0,1,0,31.6,17c.549.567,1.107,1.121,1.667,1.676l.557.553a2.459,2.459,0,0,0,1.665.892,2.506,2.506,0,0,0,1.695-.917q3.741-3.737,7.478-7.478a4.526,4.526,0,0,0,.547-.642,1.828,1.828,0,0,0-2.568-2.526" fill="#73a133"/>
    </g>
  </g>
</svg>
