<svg xmlns="http://www.w3.org/2000/svg" xmlns:xlink="http://www.w3.org/1999/xlink" width="71" height="70.996" viewBox="0 0 71 70.996">
  <defs>
    <clipPath id="clip-path">
      <rect id="Rectangle_111" data-name="Rectangle 111" width="71" height="70.996" transform="translate(0 0)" fill="#73a133"/>
    </clipPath>
  </defs>
  <g id="Group_291" data-name="Group 291" transform="translate(0 0)">
    <g id="Group_290" data-name="Group 290" clip-path="url(#clip-path)">
      <path id="Path_210" data-name="Path 210" d="M68.244,48.861c-.59-.162-.811-.529-1.182-1.217a3.181,3.181,0,0,1,.025-3.437,2.386,2.386,0,0,0-.441-2.927c-.685-.734-1.326-1.374-1.961-1.956a2.35,2.35,0,0,0-2.867-.416,3.279,3.279,0,0,1-3.509.014c-.7-.366-1.017-.6-1.158-1.137a7.059,7.059,0,0,0-.5-1.219,2.33,2.33,0,0,0-1.993-1.45A31.247,31.247,0,0,0,51.41,35.1a2.227,2.227,0,0,0-2.137,1.684A3.247,3.247,0,0,1,46.76,39.3a1.9,1.9,0,0,1-1.542.024c-2.422-1.1-3.019-.985-4.918.936-.351.354-.678.731-1.018,1.124l-.267.308a14.442,14.442,0,0,0-4.846-.863h0a1.3,1.3,0,0,1-.2-.139c-.06-.047-.12-.094-.179-.135-.235-.161-.467-.329-.7-.5-.481-.348-.979-.708-1.511-1.019a.555.555,0,0,1-.271-.451.5.5,0,0,1,.211-.444,12.423,12.423,0,0,0,4.242-5.161,22.514,22.514,0,0,0,1.008-3.361l.185-.752c.091-.361.139-.434.338-.523a4.622,4.622,0,0,0,2.419-2.528,12.078,12.078,0,0,0,.986-4.99c-.011-.508-.015-1.015-.02-1.523-.013-1.438-.026-2.923-.173-4.383A16.836,16.836,0,0,0,26.731.279C26.392.222,26.052.161,25.712.1l-.6-.1h-2.6L22.4.013c-.4.1-.814.18-1.222.264a22.775,22.775,0,0,0-2.721.679A16.92,16.92,0,0,0,7.017,16.43a60.3,60.3,0,0,0,.129,6.4,10.783,10.783,0,0,0,.847,3.013l.074.19a4.575,4.575,0,0,0,2.367,2.387.586.586,0,0,1,.211.227A13.533,13.533,0,0,0,16,38.032c.255.2.4.4.381.57s-.2.37-.5.534A8.44,8.44,0,0,0,14,40.472a1.249,1.249,0,0,1-.972.392A13.237,13.237,0,0,0,.228,51.441a12.485,12.485,0,0,0-.216,2.4Q-.011,59.576,0,65.308v2.547A2.871,2.871,0,0,0,3.169,71H44.512a2.85,2.85,0,0,0,3.144-3.152v-.755c.725.221,1.124.486,1.237,1.2a2.919,2.919,0,0,0,.289.8l.1.206a2.441,2.441,0,0,0,2.13,1.6,28.272,28.272,0,0,0,3.189,0,2.237,2.237,0,0,0,2.132-1.689,3.262,3.262,0,0,1,2.516-2.517,1.879,1.879,0,0,1,1.54-.022c2.4,1.093,3,.982,4.92-.933l.142-.149a1.868,1.868,0,0,1,.165-.168,3.162,3.162,0,0,0,.766-4.4,2.225,2.225,0,0,1,.023-2.051A2.933,2.933,0,0,1,69.054,56.8a2.815,2.815,0,0,0,1.924-2.154L71,51.494l-.011-.1a3.385,3.385,0,0,0-2.745-2.53m-5.162,11.98c.084.182.159.368.235.555a8,8,0,0,0,.446.976c.175.314.173.455-.179.795l-.083.08c-.7.676-.7.678-1.647.267-.1-.041-.19-.089-.285-.137a2.922,2.922,0,0,0-.919-.331,3.63,3.63,0,0,0-1.647.1c-.548.189-1.081.42-1.615.649-.469.2-.937.4-1.416.577a2.111,2.111,0,0,0-1.4,1.323c-.148.415-.313.825-.5,1.225-.042.093-.085.2-.127.313a4.063,4.063,0,0,1-.16.375,7.053,7.053,0,0,1-1.547.008l-.051,0c-.016-.033-.035-.075-.059-.13q-.378-.9-.724-1.821a2.084,2.084,0,0,0-1.342-1.276c-.473-.173-.938-.373-1.4-.573-.548-.236-1.115-.479-1.695-.679a3.081,3.081,0,0,0-1.7-.064,8.817,8.817,0,0,0-1.7.695l-.218.107c-.129.064-.132.066-.339-.125-1-.912-1-.912-.426-2.1a3.19,3.19,0,0,0-.09-3.419,5.478,5.478,0,0,1-.528-1.253,8.82,8.82,0,0,0-.414-1.084,2.948,2.948,0,0,0-1.1-1.221,6.856,6.856,0,0,0-1.1-.479,7.607,7.607,0,0,1-.807-.334.552.552,0,0,1-.193-.275c-.1-1.339-.1-1.339,1.152-1.841.09-.037.184-.067.278-.1a2.546,2.546,0,0,0,.776-.361,3.1,3.1,0,0,0,.981-1.1c.516-1.1.969-2.188,1.348-3.248a2.782,2.782,0,0,0,.064-1.6,8.481,8.481,0,0,0-.464-1.185c-.12-.266-.241-.531-.336-.8a.449.449,0,0,1,.023-.218c.936-1.136.936-1.138,2.224-.518a3.133,3.133,0,0,0,3.358-.116,7.82,7.82,0,0,1,2.014-.788A2.334,2.334,0,0,0,51.5,40.123a10.812,10.812,0,0,1,.663-1.627.434.434,0,0,1,.2-.144c1.444-.142,1.443-.142,1.9,1.182a3.2,3.2,0,0,0,2.49,2.342,7.787,7.787,0,0,1,1.853.8l.262.14a2.138,2.138,0,0,0,2,.1c.443-.206.891-.4,1.349-.576.072-.028.152-.062.234-.1s.224-.1.32-.128a9.835,9.835,0,0,1,.948.938c.063.069.127.139.191.207-.054.128-.106.257-.158.386-.17.42-.34.841-.546,1.242a2.446,2.446,0,0,0,.081,2.455,19.6,19.6,0,0,1,1.1,2.7,2.062,2.062,0,0,0,1.26,1.364l.323.123c.512.194,1.042.4,1.509.617a1.3,1.3,0,0,1,.128.194l.065.109c.085,1.366.08,1.367-1.188,1.8a3.2,3.2,0,0,0-2.355,2.477,7.5,7.5,0,0,1-.761,1.787l-.206.394a2.087,2.087,0,0,0-.075,1.937m-37.576,4.9.015-.008c3.62-1.943,5.39-5.338,6.406-7.723a37.175,37.175,0,0,0,2.56-10.44c.1-.855.174-1.711.248-2.588l.068-.775a8.794,8.794,0,0,1,2.769.542,12.813,12.813,0,0,1,1.736.771c.278.143.4.3.214.695-.047.1-.1.2-.152.295a3.329,3.329,0,0,0-.385.946,1.872,1.872,0,0,1-1.6,1.553,3.048,3.048,0,0,0-2.375,3.426c.011.261.014.521.018.783.006.429.013.858.049,1.284a2.347,2.347,0,0,0,1.739,2.234,3.208,3.208,0,0,1,2.482,2.46c.22.7.321,1.087.041,1.549a4.148,4.148,0,0,0-.3.659c-.036.092-.071.184-.11.274a2.686,2.686,0,0,0,.508,3.132c.33.344.667.682,1,1.02l.583.587a2.769,2.769,0,0,0,3.266.669v.549H25.5v-.111c0-.6,0-1.188.011-1.783m-3.363-4.049a.569.569,0,0,1-.124-.284,1.693,1.693,0,0,1,.027-.421L23,52.371h1.66l.068.588c.1.818.191,1.638.281,2.458l.094.861c.185,1.679.371,3.358.524,5.038a1.264,1.264,0,0,1-.124.307c-.028.058-.056.116-.083.175l-.006,0c-1.448,1.244-1.907,1.229-3.273-.111M19.2,49.393c.187.466.372.927.553,1.389a1.09,1.09,0,0,1,.053.158c-.213,1.988-.442,4.079-.713,6.181a27.539,27.539,0,0,1-2.281-7.679c1.211.6,1.736.689,2.388-.049m-1.8-3.739A4.9,4.9,0,0,1,16.2,43.028a2.8,2.8,0,0,1,1.022-.936l1.943,1.9Zm10.962,4.029q.05-.117.1-.237a1.359,1.359,0,0,0,1.514.472,4.015,4.015,0,0,0,.9-.4,27.043,27.043,0,0,1-2.317,7.639c-.054-.473-.109-.947-.162-1.421-.049-.436-.091-.874-.133-1.311-.089-.912-.18-1.855-.328-2.782a3.527,3.527,0,0,1,.431-1.96m1.915-4.026L28.485,43.98l1.986-1.792h0a11.511,11.511,0,0,1,.929.7.537.537,0,0,1,.029.261,4.888,4.888,0,0,1-1.158,2.506m-2.5-5.557a6.361,6.361,0,0,1-3.935,2.24,1.337,1.337,0,0,1-.495-.112l-.241-.077a5.979,5.979,0,0,1-3.114-1.923,1.339,1.339,0,0,1-.117-.183,13.1,13.1,0,0,0,7.942-.006.459.459,0,0,1-.04.061m-2.71,8.814a.33.33,0,0,1-.1.059c-.754.035-1.517.034-2.257,0-.021,0-.06-.025-.074-.025s-.007,0-.006.007c-.312-.718-.6-1.445-.884-2.17l-.117-.295a3.884,3.884,0,0,1,4.408,0l-.123.312c-.283.722-.567,1.447-.848,2.113M36.8,16.188a9.205,9.205,0,0,0-3.5-4.687,12.247,12.247,0,0,0-4.159-1.96,3.333,3.333,0,0,0-2.691.364c-3.025,1.889-6.377,2.653-10.48,3.218-.56.077-1.125.115-1.734.156a3.559,3.559,0,0,0-3.679,2.874l-.174.009A13.071,13.071,0,0,1,15.924,6.016c4.72-3.39,9.634-3.655,14.6-.8A13.264,13.264,0,0,1,37.3,16.188ZM10.342,19.98a.856.856,0,0,1,.168-.256.849.849,0,0,1,.174.179,1.642,1.642,0,0,0,1.746.876,1.617,1.617,0,0,0,1.4-1.6c.022-.44.018-.883.014-1.324l0-.545a2.287,2.287,0,0,1,.043-.61,1.712,1.712,0,0,1,.605-.09,32.124,32.124,0,0,0,8.365-1.534,35.333,35.333,0,0,0,3.3-1.371c.578-.263,1.156-.527,1.741-.773a1.07,1.07,0,0,1,.565-.105,8.805,8.805,0,0,1,3.4,1.79,5.177,5.177,0,0,1,1.966,4.12c0,.163,0,.326.015.489a1.614,1.614,0,0,0,1.42,1.579,1.656,1.656,0,0,0,1.774-.975.568.568,0,0,1,.131-.128.753.753,0,0,1,.156.229,2.685,2.685,0,0,1,.061.71c0,.133,0,.267.009.4l.02.358.026.008-.136.562c-.2.816-.393,1.631-.613,2.441a1.5,1.5,0,0,1-1.062,1.051,2.694,2.694,0,0,0-1.893,2.521A10.048,10.048,0,0,1,23.8,37.323h-.158a10.042,10.042,0,0,1-9.664-9.061,3.027,3.027,0,0,0-2.09-2.909,1.82,1.82,0,0,1-.842-.849,8.208,8.208,0,0,1-.706-4.523M22.163,67.466v.156H3.332l0-6.364c0-2.465-.008-4.93.008-7.4a9.819,9.819,0,0,1,9.517-9.67q.047.484.09.966c.1,1.038.191,2.067.326,3.089a32.531,32.531,0,0,0,3.6,12.069,13.123,13.123,0,0,0,5.194,5.375.485.485,0,0,1,.079.1c.026.553.022,1.108.018,1.679" fill="#73a133"/>
      <path id="Path_211" data-name="Path 211" d="M47.112,33.653c2.906.017,5.889.025,9.065.025,3.054,0,6.287-.008,9.8-.023a5.079,5.079,0,0,0,4.765-3.583l.23-.708L71,11.437l-.079-.3c-.028-.072-.056-.144-.078-.218A4.992,4.992,0,0,0,66.5,7.071a16.845,16.845,0,0,0-3.3-.039,2.7,2.7,0,0,0-2.47,2.278,5.907,5.907,0,0,0-.046.95v.215l0,2.856v.614H52.33l0-1.441c0-.871.008-1.742-.012-2.612a2.8,2.8,0,0,0-2.906-2.9c-.759-.016-1.519-.018-2.279,0A5.153,5.153,0,0,0,42,12.161c-.032,5.352-.033,10.849,0,16.34a5.182,5.182,0,0,0,5.11,5.152m1.845-10.318c-.287.01-.578.011-.881.008a7.672,7.672,0,0,0-2.752.332q0-5.55,0-11.1c0-1.574.682-2.248,2.278-2.251h1.355Zm3.373-5.974h8.341c0,.083.006.164.006.246v2.282c0,1.243,0,2.487,0,3.73a2.825,2.825,0,0,0,3.033,3.056c.308.005.615,0,.921,0,.4,0,.795,0,1.191.007a1.808,1.808,0,0,1,1.842,1.787,1.869,1.869,0,0,1-.529,1.33,1.719,1.719,0,0,1-1.228.523c-6.132.026-12.427.028-18.71,0a1.867,1.867,0,0,1-1.325-.578,1.83,1.83,0,0,1-.55-1.28,1.858,1.858,0,0,1,1.979-1.788q.294,0,.588,0h1.321a2.862,2.862,0,0,0,3.113-3.126c.007-1.379.006-2.757.005-4.136Zm15.338,3.661,0,2.649a6.991,6.991,0,0,0-2.445-.331h-.366c-.265,0-.532,0-.8,0V10.368l.358-.01a12.1,12.1,0,0,1,1.754.033,1.665,1.665,0,0,1,1.485,1.658c.02,2.976.017,5.952.014,8.973" fill="#73a133"/>
      <path id="Path_212" data-name="Path 212" d="M53.056,43.178h-.022a9.827,9.827,0,0,0-6.962,2.846,9.829,9.829,0,0,0,6.905,16.789h.035a9.818,9.818,0,0,0,.044-19.635m6.431,9.746A6.473,6.473,0,0,1,53,59.485H52.98A6.488,6.488,0,0,1,53,46.51h.017a6.467,6.467,0,0,1,6.473,6.414" fill="#73a133"/>
      <path id="Path_213" data-name="Path 213" d="M53.038,47.841a5.156,5.156,0,1,0-.077,10.312h.034a5.156,5.156,0,0,0,.043-10.312m-.028,6.982h0A1.825,1.825,0,1,1,53,51.173h.02a1.8,1.8,0,0,1,1.28.545,1.826,1.826,0,0,1-1.293,3.105" fill="#73a133"/>
    </g>
  </g>
</svg>
