<svg id="Group_261" data-name="Group 261" xmlns="http://www.w3.org/2000/svg" xmlns:xlink="http://www.w3.org/1999/xlink" width="50" height="49.997" viewBox="0 0 50 49.997">
  <defs>
    <clipPath id="clip-path">
      <rect id="Rectangle_89" data-name="Rectangle 89" width="50" height="49.997" fill="#73a133"/>
    </clipPath>
  </defs>
  <g id="Group_260" data-name="Group 260" clip-path="url(#clip-path)">
    <path id="Path_67" data-name="Path 67" d="M24.329,39.492c-.253-.034-.507-.065-.762-.095-.575-.069-1.17-.139-1.737-.261a14.484,14.484,0,0,1,2.156-28.582,2.04,2.04,0,0,0,2.16-2.332c0-.591,0-1.182-.005-1.773-.006-1.281-.013-2.605.02-3.9A2.407,2.407,0,0,0,24.747.028L24.684,0H23.231L23.2.008c-.047.011-.095.023-.142.035a1.451,1.451,0,0,1-.228.047,2.638,2.638,0,0,0-2.473,2.283c-.033.2-.064.4-.1.6-.085.533-.172,1.085-.282,1.615a.353.353,0,0,1-.131.147,21.915,21.915,0,0,0-5.516,2.3.351.351,0,0,1-.2-.015c-.383-.252-.764-.527-1.132-.793-.249-.179-.5-.359-.749-.533a2.522,2.522,0,0,0-3.283.151C7.858,6.86,6.811,7.907,5.854,8.95a2.519,2.519,0,0,0-.137,3.321c.509.727.909,1.284,1.3,1.805.1.14.1.16.028.277a19.393,19.393,0,0,0-2.263,5.439c-.044.177-.073.193-.234.216-.372.052-.747.117-1.109.179-.291.05-.592.1-.888.147A2.648,2.648,0,0,0,.095,22.969a2.888,2.888,0,0,1-.055.345c-.012.062-.025.124-.035.186l0,2.947L0,26.5c.011.062.023.124.035.186a2.919,2.919,0,0,1,.055.347A2.663,2.663,0,0,0,2.5,29.666c.284.045.568.094.852.143.406.07.826.143,1.244.2.12.017.13.018.167.166a19.835,19.835,0,0,0,2.283,5.488c.074.121.068.136-.009.238-.4.529-.82,1.116-1.328,1.848a2.524,2.524,0,0,0,.159,3.322c.878.954,1.873,1.951,3.041,3.047a2.561,2.561,0,0,0,3.362.184c.595-.415,1.23-.863,1.847-1.33.1-.073.1-.079.234,0A19.638,19.638,0,0,0,19.8,45.239c.172.043.187.07.211.239.078.549.171,1.1.261,1.64l.084.505a2.636,2.636,0,0,0,2.273,2.265c.449.057.912.093,1.375.107h.086a2.064,2.064,0,0,0,1.468-.543,2,2,0,0,0,.585-1.462c.022-2.088.022-4.279,0-6.512a1.929,1.929,0,0,0-1.81-1.988M7.682,38.93,8,38.482c.425-.6.864-1.218,1.307-1.816a1.3,1.3,0,0,0,.053-1.607,18.154,18.154,0,0,1-2.54-6.123,1.276,1.276,0,0,0-1.14-1.068c-.4-.062-.793-.13-1.189-.2-.544-.092-1.107-.188-1.664-.269-.362-.053-.436-.207-.438-.438-.012-1.295-.012-2.62,0-3.938,0-.212.072-.364.408-.414.532-.08,1.069-.17,1.589-.257.436-.073.873-.146,1.31-.214A1.241,1.241,0,0,0,6.814,21.1a18.273,18.273,0,0,1,2.555-6.169,1.271,1.271,0,0,0-.043-1.565c-.445-.607-.89-1.231-1.319-1.835L7.7,11.1c-.329-.461-.316-.474.007-.811C8.386,9.583,9.1,8.88,9.794,8.2l.6-.586c.168-.166.324-.219.622,0s.618.445.928.666c.453.322.922.656,1.371.995A1.343,1.343,0,0,0,15,9.325a18.124,18.124,0,0,1,5.943-2.486c.857-.192,1.06-.414,1.211-1.317q.07-.418.142-.836c.105-.614.214-1.248.307-1.876.048-.326.167-.433.49-.442.238-.007.47-.029.715-.053V8.247a16.69,16.69,0,0,0-12.086,6.5,16.184,16.184,0,0,0-3.5,10.26,16.342,16.342,0,0,0,4.629,11.557,16.6,16.6,0,0,0,10.973,5.183V47.7l-.08,0a3.5,3.5,0,0,1-.848-.107.677.677,0,0,1-.267-.38c-.2-.95-.349-1.919-.479-2.826a1.283,1.283,0,0,0-1.079-1.19,18.066,18.066,0,0,1-6.121-2.542,1.28,1.28,0,0,0-1.605.064c-.413.308-.841.614-1.254.909-.344.246-.7.5-1.047.755-.325.239-.495.176-.694-.024q-.488-.49-.98-.975c-.552-.546-1.122-1.111-1.67-1.677-.3-.313-.318-.347-.016-.771" fill="#73a133"/>
    <path id="Path_68" data-name="Path 68" d="M125.655,33.395A2.75,2.75,0,0,0,122.5,34.76c-.085.161-.135.187-.351.187h0q-6.538-.007-13.076-.006h-5c-.067,0-.138,0-.21-.008V33.127h12.566a2.829,2.829,0,0,0,3.069-3.079l0-.7c0-.91.007-1.851-.009-2.778,0-.245.035-.316.232-.423a2.733,2.733,0,0,0,1.305-3.177,2.835,2.835,0,0,0-2.677-2.024h-.007a2.8,2.8,0,0,0-2.691,2.065,2.73,2.73,0,0,0,1.354,3.158c.178.094.209.151.206.385-.01.773-.009,1.558-.007,2.318q0,.554,0,1.108c0,.745-.112.857-.848.858H103.9V28.677l-.01-1.642V25.714h4.364a2.783,2.783,0,0,0,3-2.975c.006-1.41.01-2.914-.005-4.439,0-.208.025-.256.194-.346a2.73,2.73,0,0,0,1.353-3.2,2.774,2.774,0,0,0-2.685-2.025h-.031a2.811,2.811,0,0,0-2.653,2.053,2.761,2.761,0,0,0,1.34,3.16c.18.1.209.144.207.337-.011.933-.01,1.881-.009,2.8q0,.844,0,1.688c0,.527-.142.664-.682.665h-.5c-1.335,0-2.715.007-4.071-.011a.581.581,0,0,1-.332-.157,1.831,1.831,0,0,0-1.5-.611l-.335.03a10.7,10.7,0,0,0-1.569.215c-5.444,1.3-8.9,4.588-10.26,9.761a13.257,13.257,0,0,0,.035,7.4,14.025,14.025,0,0,0,4.11,6.187,12.83,12.83,0,0,0,7.867,3.295,1.944,1.944,0,0,0,1.724-.694.444.444,0,0,1,.247-.079c1.557-.015,3.16-.011,4.575-.007.558,0,.695.139.7.7q0,.936,0,1.871c0,.871,0,1.741,0,2.612,0,.186-.019.21-.144.276a2.751,2.751,0,0,0-1.4,3.172,2.807,2.807,0,0,0,2.693,2.069h0a2.79,2.79,0,0,0,2.708-2.112,2.761,2.761,0,0,0-1.415-3.127c-.143-.075-.161-.111-.16-.317.009-1.47.01-2.979,0-4.486a2.772,2.772,0,0,0-2.938-2.945q-1.479-.006-2.959,0H103.9v-1.32l.01-1.644V41.341h2.385q5.122,0,10.245,0c.509,0,.665.164.669.7,0,.583,0,1.166,0,1.75,0,.627,0,1.275,0,1.914,0,.171-.015.2-.15.273a2.749,2.749,0,0,0-1.415,3.174,2.834,2.834,0,0,0,2.686,2.084h.014a2.818,2.818,0,0,0,2.692-2.061,2.756,2.756,0,0,0-1.385-3.183c-.143-.077-.162-.11-.16-.27.01-.931.008-1.877.006-2.792V42.2a2.842,2.842,0,0,0-3.149-3.147H103.907V37.239h4.261q7.03,0,14.061-.007c.14,0,.176.014.264.177a2.776,2.776,0,0,0,5.223-1.314,2.82,2.82,0,0,0-2.061-2.7m-1.219,2.695a.479.479,0,0,1,.49-.488h.01a.5.5,0,0,1,.357.158.476.476,0,0,1,.133.346.489.489,0,0,1-.16.343.5.5,0,0,1-.362.133.484.484,0,0,1-.467-.492M118,23.4a.484.484,0,0,1,.348-.14h0a.5.5,0,0,1,.359.149.475.475,0,0,1,.141.342.5.5,0,0,1-.481.487.479.479,0,0,1-.352-.129A.513.513,0,0,1,118,23.4m-7.874-8.38a.473.473,0,0,1,.332.138.5.5,0,0,1,.152.362.492.492,0,0,1-.14.355.506.506,0,0,1-.711-.022.475.475,0,0,1-.137-.344.523.523,0,0,1,.493-.488Zm-8.58,9.922V47.217a11.186,11.186,0,0,1-8.934-15.854,10.936,10.936,0,0,1,8.934-6.416m8.078,31.7a.5.5,0,0,1,.492-.477h.007a.471.471,0,0,1,.488.49.5.5,0,0,1-.152.362.45.45,0,0,1-.342.138.506.506,0,0,1-.351-.163.5.5,0,0,1-.142-.351m9.085-7.875a.5.5,0,0,1-.358.152h0a.477.477,0,0,1-.484-.467.5.5,0,0,1,.128-.364.482.482,0,0,1,.343-.147.5.5,0,0,1,.363.14.477.477,0,0,1,.009.686" transform="translate(-77.715 -11.089)" fill="#73a133"/>
  </g>
</svg>
