<svg id="Group_236" data-name="Group 236" xmlns="http://www.w3.org/2000/svg" width="30" height="30" viewBox="0 0 30 30">
  <path id="Path_56" data-name="Path 56" d="M0,15A15,15,0,1,1,15,30,15,15,0,0,1,0,15Z" fill="#fff"/>
  <path id="Path_57" data-name="Path 57" d="M15.024,13.764A1.773,1.773,0,0,1,13.1,15.53h-.022A1.77,1.77,0,1,1,13.123,12,1.766,1.766,0,0,1,15.024,13.764ZM14.8,16.924V27.137H11.4V16.924ZM27.059,27.137V21.281c0-3.137-1.677-4.6-3.914-4.6a3.375,3.375,0,0,0-3.064,1.687V16.924h-3.4c.045.958,0,10.214,0,10.214h3.4v-5.7a2.322,2.322,0,0,1,.112-.828,1.86,1.86,0,0,1,1.744-1.241c1.231,0,1.722.937,1.722,2.309v5.464Z" transform="translate(-4.2 -4.5)" fill="#0077b5"/>
</svg>
