<svg xmlns="http://www.w3.org/2000/svg" width="62.415" height="62.415" viewBox="0 0 62.415 62.415">
  <g id="Group_270" data-name="Group 270" transform="translate(41.209 59.49) rotate(-135)">
    <path id="Path_58" data-name="Path 58" d="M9.655,32.262h7.617a1.743,1.743,0,0,1,.3.034,1.418,1.418,0,0,1,.956,1.852,1.388,1.388,0,0,1-1.107.833,1.135,1.135,0,0,1-.153.008H6.287a1.118,1.118,0,0,1-.151-.018,1.394,1.394,0,0,1-1.128-1.192A1.413,1.413,0,0,1,5,33.626V22.717a1.413,1.413,0,0,1,1.886-1.26,1.4,1.4,0,0,1,.833,1.107,1.433,1.433,0,0,1,.008.153v7.617L46.816-8.754a2.645,2.645,0,0,1,.239-.19,1.4,1.4,0,0,1,2.013.7,1.378,1.378,0,0,1-.132,1.175,2.678,2.678,0,0,1-.191.24L9.655,32.262Z" fill="#0e76bc"/>
  </g>
</svg>
