<?xml version="1.0" encoding="utf-8"?>
<!-- Generator: Adobe Illustrator 26.1.0, SVG Export Plug-In . SVG Version: 6.00 Build 0)  -->
<svg version="1.1" id="Menu" xmlns="http://www.w3.org/2000/svg" xmlns:xlink="http://www.w3.org/1999/xlink" x="0px" y="0px"
	 viewBox="0 0 35 23.3" style="enable-background:new 0 0 35 23.3;" xml:space="preserve">
<style type="text/css">
	.st0{fill:#FFFFFF;}
</style>
<g id="menu-2">
	<circle id="Ellipse_2" class="st0" cx="1.9" cy="11.7" r="1.9"/>
	<path id="Rectangle_10" class="st0" d="M9.7,9.7h23.3c1.1,0,1.9,0.9,1.9,1.9v0c0,1.1-0.9,1.9-1.9,1.9H9.7c-1.1,0-1.9-0.9-1.9-1.9v0
		C7.8,10.6,8.6,9.7,9.7,9.7z"/>
	<path id="Rectangle_11" class="st0" d="M1.9,19.4h31.1c1.1,0,1.9,0.9,1.9,1.9v0c0,1.1-0.9,1.9-1.9,1.9H1.9c-1.1,0-1.9-0.9-1.9-1.9
		v0C0,20.3,0.9,19.4,1.9,19.4z"/>
	<path id="Rectangle_12" class="st0" d="M1.9,0h31.1C34.1,0,35,0.9,35,1.9v0c0,1.1-0.9,1.9-1.9,1.9H1.9C0.9,3.9,0,3,0,1.9v0
		C0,0.9,0.9,0,1.9,0z"/>
</g>
</svg>
