<svg xmlns="http://www.w3.org/2000/svg" width="35.065" height="40" viewBox="0 0 35.065 40">
  <g id="Group_302" data-name="Group 302" transform="translate(-2.75 0.25)">
    <path id="Union_10" data-name="Union 10" d="M8.5,40A8.5,8.5,0,0,1,0,31.523V8.477A8.5,8.5,0,0,1,8.5,0H21.717a8.5,8.5,0,0,1,8.5,8.477v6.585a1.9,1.9,0,0,1-3.8,0V8.477a4.705,4.705,0,0,0-4.708-4.692H8.5A4.705,4.705,0,0,0,3.8,8.477V31.523A4.705,4.705,0,0,0,8.5,36.214h1.652a1.893,1.893,0,1,1,0,3.786Zm7.251-.544a1.87,1.87,0,0,1-.492-1.763l1.5-6.06a1.849,1.849,0,0,1,.491-.868l9.195-9.195h0a5.086,5.086,0,0,1,7.122,7.262l-9.124,9.124a1.848,1.848,0,0,1-.869.491l-6.065,1.5a1.878,1.878,0,0,1-1.761-.49Zm4.494-6.428L19.615,35.6l2.567-.635L27.345,29.8l-1.932-1.932Zm8.759-8.76-.965.966,1.932,1.932.966-.965a1.376,1.376,0,0,0,0-1.934,1.366,1.366,0,0,0-1.93,0ZM9,25.482a1.86,1.86,0,1,1,0-3.72h6.452a1.86,1.86,0,0,1,0,3.72Zm0-6.453a1.86,1.86,0,1,1,0-3.72h12.9a1.86,1.86,0,1,1,0,3.72Zm0-6.452a1.86,1.86,0,1,1,0-3.72h12.9a1.86,1.86,0,1,1,0,3.72Z" transform="translate(2.75 -0.25)" fill="#73a133"/>
  </g>
</svg>
