<svg xmlns="http://www.w3.org/2000/svg" width="40" height="39.998" viewBox="0 0 40 39.998">
  <g id="Group_303" data-name="Group 303" transform="translate(-0.6 -0.6)">
    <path id="Union_8" data-name="Union 8" d="M32.454,38.745l-2.823-2.823a4.258,4.258,0,0,1-1.253-3.034,4.179,4.179,0,0,1,.381-1.735l-.512-.513a17.331,17.331,0,1,1,2.393-2.392l.513.513a4.19,4.19,0,0,1,1.736-.383,4.264,4.264,0,0,1,3.033,1.254l2.824,2.823a4.3,4.3,0,0,1,0,6.068l-.223.223a4.3,4.3,0,0,1-6.069,0Zm-.207-6.722-.223.223a.916.916,0,0,0,0,1.284l2.823,2.823a.952.952,0,0,0,1.284,0l.223-.223a.916.916,0,0,0,0-1.284l-2.823-2.823a.917.917,0,0,0-1.284,0ZM3.385,17.291A13.906,13.906,0,1,0,17.291,3.384,13.922,13.922,0,0,0,3.385,17.291ZM16.069,29.319c-.054-.005-.107-.014-.153-.022-.031-.005-.062-.011-.094-.014-.305-.037-.628-.08-.949-.145a1.122,1.122,0,0,1-.109-.026L14.72,29.1c-.377-.081-.709-.167-1.021-.263a12.212,12.212,0,0,1-4.958-2.989l-.011-.011a.473.473,0,0,1-.065-.087,12.09,12.09,0,1,1,17.254,0,.531.531,0,0,1-.078.1,12.212,12.212,0,0,1-4.959,2.989c-.3.092-.618.175-1.016.262l-.014,0-.046.011c-.031.009-.061.017-.094.023-.345.069-.688.114-.949.146l-.011,0c-.03,0-.065.008-.1.014s-.086.014-.135.02c-.416.042-.826.062-1.225.062A12.106,12.106,0,0,1,16.069,29.319Zm-2.015-6.4-1.6,1.6a8.419,8.419,0,0,0,.723.443c.044.023.1.047.15.071l.131.062a8.3,8.3,0,0,0,.894.381c.04.013.083.03.126.047s.1.037.139.05a8.625,8.625,0,0,0,1.142.281c.076.014.151.025.231.036l.054.007a7.771,7.771,0,0,0,2.492,0l.054-.007c.079-.011.155-.022.228-.035a8.572,8.572,0,0,0,1.142-.281c.046-.014.093-.033.143-.051s.086-.034.13-.049a8.827,8.827,0,0,0,.89-.379l.131-.062c.055-.025.106-.049.153-.073a8.3,8.3,0,0,0,.719-.441l-1.6-1.6a5.616,5.616,0,0,0-3.236-1.337A5.623,5.623,0,0,0,14.054,22.919Zm8.829-6.929a5.553,5.553,0,0,1-1.269,3.541,6.862,6.862,0,0,1,1.308,1l1.6,1.6A8.606,8.606,0,0,0,26,17.291a8.707,8.707,0,1,0-17.414,0,8.6,8.6,0,0,0,1.48,4.833l1.6-1.6a6.915,6.915,0,0,1,1.308-1,5.589,5.589,0,1,1,9.913-3.539Zm-7.8,0a2.208,2.208,0,1,0,2.208-2.208A2.21,2.21,0,0,0,15.083,15.99Z" transform="translate(0.6 0.6)" fill="#73a133"/>
  </g>
</svg>
