<svg xmlns="http://www.w3.org/2000/svg" width="40" height="40" viewBox="0 0 40 40">
  <path id="Layer_1" data-name="Layer 1" d="M37.692,40.75H3.809A3.066,3.066,0,0,1,.75,37.692V23.887A3.068,3.068,0,0,1,2.6,21.08,10.637,10.637,0,0,1,4.175,15.5,9.8,9.8,0,0,1,7.59,12.162,6.507,6.507,0,0,1,6.264,10a7.012,7.012,0,0,1,2.07-7.725A6.731,6.731,0,0,1,12.642.75h.016a6.731,6.731,0,0,1,4.308,1.524A7.011,7.011,0,0,1,19.036,10a6.508,6.508,0,0,1-1.326,2.163A9.8,9.8,0,0,1,21.125,15.5a10.441,10.441,0,0,1,1.35,3.391,6.824,6.824,0,0,1,10.695,1.943h4.522a3.066,3.066,0,0,1,3.059,3.058V37.691A3.066,3.066,0,0,1,37.692,40.75Zm-.561-3.608h.011V24.436H33.879a6.847,6.847,0,0,1-1.765,4.048,10.179,10.179,0,0,1,5.017,8.658Zm-16.477,0H33.491c-.232-4.7-3.546-6.366-6.318-6.366a6.634,6.634,0,0,0-4.843,2.014A6.462,6.462,0,0,0,20.654,37.142Zm-16.3,0H17.032a10.179,10.179,0,0,1,5.017-8.658,6.847,6.847,0,0,1-1.765-4.048H4.358ZM23.866,23.867a3.216,3.216,0,0,0,6.431,0,3.216,3.216,0,0,0-6.431,0ZM6.241,20.828H19.08a6.692,6.692,0,0,0-1.709-4.381,6.538,6.538,0,0,0-4.79-2.021C9.842,14.426,6.545,16.1,6.241,20.828ZM12.63,4.358a3.216,3.216,0,0,0,0,6.431,3.121,3.121,0,0,0,3.2-3.215A3.122,3.122,0,0,0,12.63,4.358Z" transform="translate(-0.75 -0.75)" fill="#73a133"/>
</svg>
