<svg xmlns="http://www.w3.org/2000/svg" width="39.943" height="40" viewBox="0 0 39.943 40">
  <path id="Union_11" data-name="Union 11" d="M-1447.714-753.114a1.9,1.9,0,0,1-.3-.035,1.5,1.5,0,0,0-.2-.022h-.023l-.024,0c-.244-.03-.47-.075-.688-.119s-.4-.08-.608-.107a1.566,1.566,0,0,1-.534-.07,18.1,18.1,0,0,1-3.427-1.045,3.3,3.3,0,0,1-.437-.188l-.02-.011c-.187-.106-.39-.2-.6-.3s-.437-.2-.65-.325l-.356-.178-.021-.013c-.252-.168-.512-.327-.762-.48s-.487-.3-.734-.46a.466.466,0,0,1-.06-.028h-.019l-.1-.073a23.511,23.511,0,0,1-2.285-1.88h-.006l-.051-.051-.119-.11v-.009l-.628-.627a.451.451,0,0,1-.181-.182,18.453,18.453,0,0,1-1.817-2.225l-.072-.1v-.019a.427.427,0,0,1-.035-.078.483.483,0,0,1-.058-.114c-.016-.024-.039-.054-.059-.082a1.446,1.446,0,0,1-.139-.208c-.225-.336-.456-.683-.687-1.086a2.657,2.657,0,0,1-.16-.288,1.946,1.946,0,0,0-.118-.217l-.014-.02-.011-.021c-.089-.179-.179-.371-.265-.557-.074-.165-.152-.333-.229-.487a1.57,1.57,0,0,1-.27-.545,17.523,17.523,0,0,1-1.048-3.369,2.392,2.392,0,0,1-.063-.293,1.162,1.162,0,0,0-.043-.2l-.012-.038,0-.038c-.028-.229-.056-.442-.085-.657s-.058-.434-.087-.664l0-.024v-.025a1.233,1.233,0,0,0-.024-.194,1.945,1.945,0,0,1-.032-.3c-.057-.562-.116-1.208-.116-1.8a19.985,19.985,0,0,1,3.388-11.085v-.064l.072-.1c.148-.207.3-.4.439-.584s.283-.369.423-.563l.02-.026.063-.064a18.789,18.789,0,0,1,2.958-2.971.438.438,0,0,1,.187-.162,12.223,12.223,0,0,1,1.008-.779l.1-.065h.054a19.8,19.8,0,0,1,11.2-3.446c.595,0,1.24.059,1.8.116a1.987,1.987,0,0,1,.3.033,1.241,1.241,0,0,0,.193.023,5.84,5.84,0,0,1,1.025.118c.125.022.241.042.352.059l.036,0,.032.012a1.425,1.425,0,0,0,.2.042,2.076,2.076,0,0,1,.294.065,17.537,17.537,0,0,1,3.383,1.051l.035.015.031.021a1.347,1.347,0,0,0,.364.184l.027.009.024.012c.167.084.354.169.534.253s.38.175.558.263l.022.012.02.013a1.854,1.854,0,0,0,.216.119,2.783,2.783,0,0,1,.288.16c.4.228.809.462,1.161.7l.031.021.028.027a.7.7,0,0,0,.2.133.454.454,0,0,1,.13.062.428.428,0,0,1,.078.035h.013l.1.066c.314.209.582.419.838.622h.313v.216a18.706,18.706,0,0,1,2.959,2.977l.084.107v.005a.44.44,0,0,1,.076.117l.068.084c.21.262.449.558.652.861l.064.1v.011a.389.389,0,0,1,.027.058c.332.5.673,1.012.957,1.523l.008.015.167.335a8.832,8.832,0,0,1,.646,1.29l.174.351a18.025,18.025,0,0,1,1.057,3.462l.008.039v.039a.828.828,0,0,0,.021.152,1.882,1.882,0,0,1,.035.247,9.686,9.686,0,0,1,.228,1.331l0,.025v.024a1.232,1.232,0,0,0,.023.194,1.938,1.938,0,0,1,.032.3c.057.562.116,1.208.116,1.8a20.07,20.07,0,0,1-3.509,11.3c-.071.114-.144.225-.214.336a10.373,10.373,0,0,0-.625,1.061l-.028.056-.045.045c-.076.075-.155.168-.238.265s-.182.212-.279.31c-.072.073-.137.15-.205.231s-.155.186-.254.286l-.688.689c-.157.157-.326.294-.488.427a5.68,5.68,0,0,0-.431.376l-.192.19a11.165,11.165,0,0,1-1.428,1.07l-.095.06h-.05A19.7,19.7,0,0,1-1445.913-753C-1446.508-753-1447.153-753.059-1447.714-753.114Zm-5.709-5.363c.144.071.289.137.438.207s.313.143.472.223a1.554,1.554,0,0,1,.138.079l.054.02c.228.084.473.171.71.255s.492.174.726.261l.079.03.022.021,1.319.331a.9.9,0,0,1,.174.044l.025.008h.008l.043.01a12.844,12.844,0,0,0,1.43.221l.309,0a7.673,7.673,0,0,0,.842.064,2.136,2.136,0,0,0,.512-.054l.047-.012h.049a16.147,16.147,0,0,0,7.387-1.774l-5.092-5.091a9.117,9.117,0,0,1-2.295.3,7.73,7.73,0,0,1-1.213-.062l-.124-.021-.031-.032h-.043l-.03,0c-.285-.048-.572-.1-.83-.144Zm-5.164-4.139c.263.3.536.609.835.909l.4.4c.2.2.414.4.623.594.119.112.24.225.359.339l4.667-4.666a9.633,9.633,0,0,1-2.243-2.219Zm18.8-2.89-.066.066-.383.286,4.7,4.7c.032-.024.063-.044.093-.064s.048-.032.059-.041l.029-.025a9.548,9.548,0,0,0,.829-.719l.377-.377a1.907,1.907,0,0,1,.227-.254,1.228,1.228,0,0,0,.15-.17l.014-.018c.1-.126.2-.249.306-.368.046-.052.091-.1.133-.153l-4.711-4.711A9.876,9.876,0,0,1-1439.79-765.505Zm-22.613-7.581a14.112,14.112,0,0,0,.049,1.449,1.108,1.108,0,0,1,.066.422l.015.114a10.608,10.608,0,0,0,.2,1.25l.013.046v.014l.009.026a.923.923,0,0,1,.043.165c.056.195.11.4.164.6s.113.428.171.625l.015.053v.056c0,.013.014.054.021.08a1.014,1.014,0,0,1,.027.112c.08.21.161.413.239.609.086.213.174.435.262.668l.025.067v.029c.016.039.052.109.073.153.088.178.177.371.264.557.054.117.109.238.165.354l5.062-5.063a7.306,7.306,0,0,1-.184-.865.792.792,0,0,1-.077-.376c0-.151-.013-.322-.025-.5-.017-.208-.032-.424-.032-.647a10.361,10.361,0,0,1,.307-2.288l-5.1-5.1A16.125,16.125,0,0,0-1462.4-773.086Zm25.974-2.326c.021.114.04.225.06.333.024.132.049.268.073.411a.79.79,0,0,1,.077.377c0,.187.014.359.027.544s.029.388.029.6a9.616,9.616,0,0,1-.3,2.411l5.092,5.091a16.463,16.463,0,0,0,1.831-7.444,13.655,13.655,0,0,0-.055-1.507l0-.043v-.265a11.4,11.4,0,0,0-.217-1.42l-.013-.047v-.013c0-.008-.006-.017-.009-.025a.8.8,0,0,1-.043-.173l-.315-1.257a.435.435,0,0,1-.088-.227c-.163-.485-.328-.928-.488-1.356-.025-.051-.042-.094-.054-.124,0,0,0,0,0-.007l-.021-.021-.475-.949Zm-10.247,8.581c.027,0,.063.014.076.015h.047l.047.012a2,2,0,0,0,.536.045,5.846,5.846,0,0,0,2.12-.362,2.439,2.439,0,0,1,.381-.178c.088-.034.171-.067.253-.107.2-.1.409-.205.559-.3a.428.428,0,0,1,.128-.083,6.085,6.085,0,0,0,2.392-2.959l0-.007a6.294,6.294,0,0,0,.434-2.271,1.761,1.761,0,0,0-.026-.261,2.779,2.779,0,0,1-.031-.371.671.671,0,0,0-.024-.156c-.007-.033-.015-.067-.021-.105a.575.575,0,0,1-.068-.249,1.891,1.891,0,0,1-.054-.258,1.409,1.409,0,0,0-.043-.2l-.021-.06v-.072c-.049-.189-.1-.337-.149-.492a6.411,6.411,0,0,0-3.668-3.724c-.077-.026-.171-.053-.263-.079s-.163-.046-.24-.07h-.06l-.06-.021a1.473,1.473,0,0,0-.2-.042,2.018,2.018,0,0,1-.318-.072l-.026-.009-.024-.012a.313.313,0,0,0-.037-.016h-.018a1.425,1.425,0,0,1-.278-.037,1.151,1.151,0,0,0-.124-.021h-.049l-.046-.012a2,2,0,0,0-.537-.045,6.323,6.323,0,0,0-2.271.433,6.076,6.076,0,0,0-3.071,2.467c-.059.118-.117.22-.175.319s-.108.191-.161.3l-.011.022-.014.02a1.756,1.756,0,0,0-.233.509l-.008.029a7,7,0,0,0-.383,2.173,1.761,1.761,0,0,0,.026.26,2.607,2.607,0,0,1,.032.371.982.982,0,0,0,.021.125c.011.056.023.118.03.181a.791.791,0,0,1,.063.327,1.4,1.4,0,0,0,.094.393l.02.06v.06c.025.078.049.161.072.241s.053.186.078.263a6.415,6.415,0,0,0,3.711,3.663c.205.052.366.1.52.155h.058l.06.02a1.337,1.337,0,0,0,.2.042,2.018,2.018,0,0,1,.318.072l.027.009.024.012a.165.165,0,0,0,.036.016.07.07,0,0,0,.018,0A1.409,1.409,0,0,1-1446.677-766.831Zm-12-16.647,4.67,4.67a3.2,3.2,0,0,0,.154-.337l.03-.075.1-.1a10.782,10.782,0,0,1,1.86-1.744l-4.615-4.614Zm18.481,2.419a10.284,10.284,0,0,1,2.212,2.249l4.666-4.666-2.253-2.208Zm-4.568-1.716.13.019.035.035h.043l.031.005a7.709,7.709,0,0,1,.946.2l5.072-5.072c-.311-.171-.593-.31-.909-.447a1.526,1.526,0,0,1-.354-.145l-.02-.01a4.807,4.807,0,0,0-.84-.342c-.124-.042-.251-.085-.381-.132a1,1,0,0,1-.144-.04l-.026-.008h-.021l-.052-.015c-.2-.057-.416-.114-.625-.17s-.41-.11-.605-.165a1.075,1.075,0,0,1-.164-.043l-.025-.009h-.014l-.047-.012a10.323,10.323,0,0,0-1.384-.221l-.069-.007-.062-.032a.463.463,0,0,0-.168-.016l-.046,0a9.541,9.541,0,0,0-1.073-.079,4.5,4.5,0,0,0-.451.022l-.039,0a16.473,16.473,0,0,0-7.443,1.831l5.091,5.092a9.654,9.654,0,0,1,2.41-.3A8.031,8.031,0,0,1-1444.768-782.775Z" transform="translate(1466 793)" fill="#73a133"/>
</svg>
