<svg xmlns="http://www.w3.org/2000/svg" width="44.134" height="40" viewBox="0 0 44.134 40">
  <path id="Union_9" data-name="Union 9" d="M-502-763.037v-2.781a5.676,5.676,0,0,1,5.7-5.634h18.166a5.676,5.676,0,0,1,5.7,5.634l0,2.681a8.261,8.261,0,0,1-2.143,6.45c-2.343,2.447-6.52,3.688-12.414,3.688C-496.808-753-502-756.471-502-763.037Zm4.136-2.781v2.781c0,4.06,3.456,5.952,10.877,5.952,4.725,0,7.755-.765,9.265-2.341a4.538,4.538,0,0,0,1.159-3.591v-2.8a1.561,1.561,0,0,0-1.568-1.549H-496.3A1.56,1.56,0,0,0-497.864-765.819Zm24,10.856-.546-.06.4-.368a8.567,8.567,0,0,0,2.281-3.342l.061-.163,1.008.011c3.923,0,6.434-.628,7.674-1.922a3.81,3.81,0,0,0,.962-3.011v-2a1.561,1.561,0,0,0-1.568-1.549h-7.7l-.049-.185a6.888,6.888,0,0,0-2.157-3.469l-.5-.432,10.4,0a5.676,5.676,0,0,1,5.7,5.634l0,1.884a7.525,7.525,0,0,1-1.951,5.868c-2.078,2.168-5.719,3.268-10.822,3.268A29.747,29.747,0,0,1-473.861-754.963Zm-22.686-28.811A9.3,9.3,0,0,1-487.206-793a9.3,9.3,0,0,1,9.342,9.227,9.3,9.3,0,0,1-9.342,9.226A9.294,9.294,0,0,1-496.547-783.773Zm4.135,0a5.18,5.18,0,0,0,5.206,5.141A5.179,5.179,0,0,0-482-783.773a5.179,5.179,0,0,0-5.206-5.141A5.179,5.179,0,0,0-492.412-783.773Zm15.864,1.794a7.484,7.484,0,0,1,7.522-7.429,7.484,7.484,0,0,1,7.522,7.429,7.484,7.484,0,0,1-7.522,7.429A7.484,7.484,0,0,1-476.547-781.979Zm4.136,0a3.368,3.368,0,0,0,3.386,3.344,3.368,3.368,0,0,0,3.386-3.344,3.368,3.368,0,0,0-3.386-3.344A3.368,3.368,0,0,0-472.411-781.979Z" transform="translate(502 793)" fill="#73a133"/>
</svg>
